<svg width="13" height="9" viewBox="0 0 13 9" fill="none" xmlns="http://www.w3.org/2000/svg">
<path d="M0.38861 4.4805H2.39261V2.2605H4.02461V4.4805H6.02861V5.9805H4.02461V8.2005H2.39261V5.9805H0.38861V4.4805ZM10.9409 6.3645C10.9409 6.1325 10.8889 5.9285 10.7849 5.7525C10.6809 5.5685 10.5009 5.4165 10.2449 5.2965C9.98892 5.1765 9.64492 5.0845 9.21292 5.0205C8.78092 4.9565 8.23692 4.9245 7.58092 4.9245C7.66892 4.1805 7.74092 3.4245 7.79692 2.6565C7.85292 1.8885 7.89692 1.1685 7.92892 0.4965H12.4289V1.9965H9.42892C9.41292 2.2845 9.39292 2.5645 9.36892 2.8365C9.35292 3.1005 9.33292 3.3325 9.30892 3.5325C10.4769 3.6125 11.3369 3.8885 11.8889 4.3605C12.4489 4.8245 12.7289 5.4725 12.7289 6.3045C12.7289 6.6885 12.6609 7.0445 12.5249 7.3725C12.3889 7.7005 12.1849 7.9845 11.9129 8.2245C11.6409 8.4645 11.2969 8.6525 10.8809 8.7885C10.4729 8.9245 9.99292 8.9925 9.44092 8.9925C9.22492 8.9925 8.99692 8.9765 8.75692 8.9445C8.52492 8.9205 8.29692 8.8845 8.07292 8.8365C7.85692 8.7965 7.66092 8.7525 7.48492 8.7045C7.30892 8.6565 7.17292 8.6085 7.07692 8.5605L7.40092 7.0845C7.60092 7.1725 7.86492 7.2605 8.19292 7.3485C8.52092 7.4285 8.91292 7.4685 9.36892 7.4685C9.92092 7.4685 10.3209 7.3605 10.5689 7.1445C10.8169 6.9205 10.9409 6.6605 10.9409 6.3645Z" fill="#8C8D8E"/>
</svg>
