<svg width="64" height="51" viewBox="0 0 64 51" fill="none" xmlns="http://www.w3.org/2000/svg">
<g clip-path="url(#clip0_64_479)">
<path d="M33.4249 21.7051L30.4971 24.3896C26.5349 28.0234 22.0261 25.5527 20.572 23.9707C17.9467 21.0996 18.1517 16.6562 21.0014 14.0391L28.9844 6.72461H28.3403C22.6995 6.72461 17.2734 8.96582 13.2818 12.9551L3.89346 12.9844C2.17584 12.9844 0.770508 14.3896 0.770508 16.1074V31.7129C0.770508 33.4307 2.17584 34.8418 3.80563 34.8418L14.9604 34.8359L23.7925 42.8261C26.4763 45.0107 30.4044 44.5947 32.5758 41.9223L34.3442 43.4116C35.8939 44.5932 38.1874 44.437 39.4561 42.8873L42.5185 39.1177L43.043 39.557C44.3849 40.6312 46.3494 40.4361 47.4346 39.0933L48.3692 37.938C49.4505 36.6002 49.2454 34.6421 47.9104 33.5572L33.4249 21.7051ZM60.1066 12.9844L50.7377 12.9721C46.7384 8.9721 41.3142 6.73382 35.6597 6.73382L34.8204 6.72461C34.0397 6.72461 33.296 7.03682 32.7105 7.56133L23.1191 16.3242C23.1094 16.3438 23.0996 16.3633 23.0996 16.3633C21.4601 17.9062 21.4991 20.3281 22.8849 21.832C23.8242 22.8574 26.3006 23.9434 28.3628 22.1006C28.3628 22.0884 28.3872 22.0884 28.3994 22.0762L36.2067 14.9375C36.8411 14.3642 37.8287 14.4008 38.4143 15.0352C38.9998 15.6695 38.951 16.6582 38.3167 17.2441L35.7676 19.5752L49.977 31.1084C51.1598 32.0842 51.88 33.4023 52.1357 34.8174L60.1066 34.8203C61.8242 34.8203 63.2295 33.416 63.2295 31.6973V16.1094C63.2295 14.3809 61.834 12.9844 60.1066 12.9844Z" fill="#001302"/>
</g>
<defs>
<clipPath id="clip0_64_479">
<rect width="62.459" height="50" fill="white" transform="translate(0.770508 0.474609)"/>
</clipPath>
</defs>
</svg>
