<svg width="57" height="51" viewBox="0 0 57 51" fill="none" xmlns="http://www.w3.org/2000/svg">
<path d="M55.8691 33.666C54.5879 31.9268 52.1445 31.5508 50.4072 32.839L38.7178 41.4493H26.9404C26.0861 41.4493 25.4658 40.7413 25.4658 39.8878C25.4658 39.0333 26.1738 38.3253 26.9404 38.3253H34.582C36.0566 38.3253 37.585 37.2628 37.8408 35.7257C38.1582 33.7726 36.6572 32.0753 34.7529 32.0753H19.043C16.4941 32.0753 13.8555 32.9786 11.8047 34.6388L7.26367 38.3243L1.85547 38.2363C1.08896 38.2363 0.380859 39.0371 0.380859 39.8867V49.2598C0.380859 50.1211 1.08896 50.8242 1.85547 50.8242H35.6543C37.8057 50.8242 39.9434 50.1223 41.6797 48.8447L54.873 39.126C56.7773 37.8457 57.1484 35.4043 55.8691 33.666Z" fill="#001302"/>
<path d="M27.6562 17.9141C26.9141 17.8066 25.9375 17.4551 25.0781 17.1426L24.5996 16.9766C23.3789 16.459 22.041 17.1816 21.6113 18.3145C21.1816 19.4473 21.8185 20.873 23.0361 21.3066L23.4907 21.4684C24.3194 21.7673 25.2368 22.0636 26.1655 22.2801V23.4805C26.1655 24.7744 27.2134 25.8242 28.5073 25.8242C29.8013 25.8242 30.8511 24.7744 30.8511 23.4805V22.4648C33.3188 21.906 35.0386 20.3311 35.353 18C36.2015 13.1123 31.5552 11.7832 29.062 11.0713L28.5449 10.8926C26.06 10.1877 26.1164 9.87047 26.1846 9.48708L26.1914 9.44824C26.3043 8.7875 27.6855 8.46582 29.3369 8.72647C29.8191 8.80273 30.4473 8.9752 31.2559 9.25596C32.4795 9.67402 33.8154 9.03018 34.2363 7.80674C34.6572 6.5833 34.0108 5.24912 32.7871 4.82529C32.0447 4.56875 31.4277 4.39971 30.8516 4.2666V3.16797C30.8516 1.87402 29.8018 0.824219 28.5078 0.824219C27.2139 0.824219 26.166 1.87402 26.166 3.16797V4.19531C23.7012 4.75293 21.9727 6.31738 21.4844 8.64941C20.7343 13.4684 25.4256 14.8602 27.2132 15.3906L27.2266 15.3945L27.8611 15.5776C30.9503 16.4619 30.9032 16.7383 30.8242 17.2015L30.824 17.2026C30.7129 17.8652 29.3359 18.1875 27.6562 17.9141Z" fill="#001302"/>
</svg>
