<svg width="40" height="40" viewBox="0 0 40 40" fill="none" xmlns="http://www.w3.org/2000/svg">
<path d="M36.3422 16.736H34.9997V16.6668H19.9997V23.3335H29.4188C28.0447 27.2143 24.3522 30.0002 19.9997 30.0002C14.4772 30.0002 9.99967 25.5227 9.99967 20.0002C9.99967 14.4777 14.4772 10.0002 19.9997 10.0002C22.5488 10.0002 24.868 10.9618 26.6338 12.5327L31.348 7.8185C28.3713 5.04433 24.3897 3.3335 19.9997 3.3335C10.7955 3.3335 3.33301 10.796 3.33301 20.0002C3.33301 29.2043 10.7955 36.6668 19.9997 36.6668C29.2038 36.6668 36.6663 29.2043 36.6663 20.0002C36.6663 18.8827 36.5513 17.7918 36.3422 16.736Z" fill="#FFC107"/>
<path d="M5.25488 12.2427L10.7307 16.2585C12.2124 12.5902 15.8007 10.0002 19.9999 10.0002C22.549 10.0002 24.8682 10.9618 26.6341 12.5327L31.3482 7.8185C28.3715 5.04433 24.3899 3.3335 19.9999 3.3335C13.5982 3.3335 8.04655 6.94766 5.25488 12.2427Z" fill="#FF3D00"/>
<path d="M19.9996 36.6667C24.3046 36.6667 28.2163 35.0192 31.1738 32.3401L26.0154 27.9751C24.2859 29.2904 22.1725 30.0018 19.9996 30.0001C15.6646 30.0001 11.9838 27.2359 10.5971 23.3784L5.16211 27.5659C7.92044 32.9634 13.5221 36.6667 19.9996 36.6667Z" fill="#4CAF50"/>
<path d="M36.3425 16.7357H35V16.6665H20V23.3332H29.4192C28.7618 25.1802 27.5778 26.7942 26.0133 27.9757L26.0158 27.974L31.1742 32.339C30.8092 32.6707 36.6667 28.3332 36.6667 19.9998C36.6667 18.8823 36.5517 17.7915 36.3425 16.7357Z" fill="#1877F2"/>
</svg>
