<svg width="993" height="44" viewBox="0 0 993 44" fill="none" xmlns="http://www.w3.org/2000/svg">
<path d="M49.7465 32.7693C49.7465 33.1746 49.6665 33.564 49.5065 33.9373C49.3465 34.3106 49.1385 34.6733 48.8825 35.0253C48.6265 35.3666 48.3385 35.6973 48.0185 36.0173C47.6985 36.3373 47.3839 36.6413 47.0745 36.9293C46.9145 37.0786 46.7385 37.2493 46.5465 37.4413C46.3652 37.6226 46.1892 37.8093 46.0185 38.0013C45.8479 38.1933 45.6932 38.3746 45.5545 38.5453C45.4265 38.7053 45.3465 38.8386 45.3145 38.9453H50.0825V40.9453H42.6905C42.6692 40.828 42.6585 40.6786 42.6585 40.4973C42.6585 40.316 42.6585 40.188 42.6585 40.1133C42.6585 39.6013 42.7385 39.132 42.8985 38.7053C43.0692 38.2786 43.2879 37.884 43.5545 37.5213C43.8212 37.148 44.1199 36.8013 44.4505 36.4813C44.7919 36.1613 45.1279 35.8413 45.4585 35.5213C45.7145 35.276 45.9545 35.0466 46.1785 34.8333C46.4025 34.6093 46.5999 34.396 46.7705 34.1933C46.9412 33.98 47.0745 33.772 47.1705 33.5693C47.2665 33.356 47.3145 33.1426 47.3145 32.9293C47.3145 32.46 47.1812 32.1293 46.9145 31.9373C46.6479 31.7453 46.3172 31.6493 45.9225 31.6493C45.6345 31.6493 45.3625 31.6973 45.1065 31.7933C44.8612 31.8786 44.6319 31.9853 44.4185 32.1133C44.2159 32.2306 44.0399 32.3533 43.8905 32.4813C43.7412 32.5986 43.6292 32.6946 43.5545 32.7693L42.3705 31.1053C42.8399 30.668 43.3839 30.3106 44.0025 30.0333C44.6319 29.7453 45.3039 29.6013 46.0185 29.6013C46.6692 29.6013 47.2292 29.676 47.6985 29.8253C48.1679 29.9746 48.5519 30.188 48.8505 30.4653C49.1599 30.732 49.3839 31.0626 49.5225 31.4573C49.6719 31.8413 49.7465 32.2786 49.7465 32.7693ZM51.8043 35.0893H56.4443V37.2493H51.8043V35.0893ZM62.4458 32.7693C62.0298 33.3133 61.5871 33.9053 61.1178 34.5453C60.6485 35.1853 60.2538 35.8413 59.9338 36.5133H62.4458V32.7693ZM64.7818 29.8573V36.5133H65.9658V38.4653H64.7818V40.9453H62.4458V38.4653H57.6618V36.7213C57.8965 36.252 58.1898 35.724 58.5418 35.1373C58.8938 34.54 59.2831 33.932 59.7098 33.3133C60.1471 32.684 60.6058 32.0706 61.0858 31.4733C61.5658 30.876 62.0458 30.3373 62.5258 29.8573H64.7818ZM76.6233 34.4173C77.0713 33.66 77.498 32.9026 77.9033 32.1453C78.3086 31.388 78.682 30.6253 79.0233 29.8573H81.7753C81.1673 31.052 80.538 32.2093 79.8873 33.3293C79.2366 34.4493 78.5486 35.5746 77.8233 36.7053V40.9453H75.3273V36.7373C74.602 35.6066 73.9086 34.476 73.2473 33.3453C72.5966 32.2146 71.9673 31.052 71.3593 29.8573H74.2553C74.5966 30.6253 74.9646 31.388 75.3593 32.1453C75.754 32.9026 76.1753 33.66 76.6233 34.4173ZM81.6712 36.8013C81.6712 36.0546 81.7832 35.404 82.0072 34.8493C82.2418 34.284 82.5458 33.8146 82.9192 33.4413C83.2925 33.068 83.7192 32.7853 84.1992 32.5933C84.6898 32.4013 85.1912 32.3053 85.7032 32.3053C86.8978 32.3053 87.8418 32.6733 88.5352 33.4093C89.2285 34.1346 89.5752 35.2066 89.5752 36.6253C89.5752 36.764 89.5698 36.9186 89.5592 37.0893C89.5485 37.2493 89.5378 37.3933 89.5272 37.5213H84.1192C84.1725 38.012 84.4018 38.4013 84.8072 38.6893C85.2125 38.9773 85.7565 39.1213 86.4392 39.1213C86.8765 39.1213 87.3032 39.084 87.7192 39.0093C88.1458 38.924 88.4925 38.8226 88.7592 38.7053L89.0792 40.6413C88.9512 40.7053 88.7805 40.7693 88.5672 40.8333C88.3538 40.8973 88.1138 40.9506 87.8472 40.9933C87.5912 41.0466 87.3138 41.0893 87.0152 41.1213C86.7165 41.1533 86.4178 41.1693 86.1192 41.1693C85.3618 41.1693 84.7005 41.0573 84.1352 40.8333C83.5805 40.6093 83.1165 40.3053 82.7432 39.9213C82.3805 39.5266 82.1085 39.0626 81.9272 38.5293C81.7565 37.996 81.6712 37.42 81.6712 36.8013ZM87.2712 35.8893C87.2605 35.6866 87.2232 35.4893 87.1592 35.2973C87.1058 35.1053 87.0152 34.9346 86.8872 34.7853C86.7698 34.636 86.6152 34.5133 86.4232 34.4173C86.2418 34.3213 86.0125 34.2733 85.7352 34.2733C85.4685 34.2733 85.2392 34.3213 85.0472 34.4173C84.8552 34.5026 84.6952 34.62 84.5672 34.7693C84.4392 34.9186 84.3378 35.0946 84.2632 35.2973C84.1992 35.4893 84.1512 35.6866 84.1192 35.8893H87.2712ZM95.1309 39.2813C95.3656 39.2813 95.5896 39.276 95.8029 39.2653C96.0163 39.2546 96.1869 39.2386 96.3149 39.2173V37.4093C96.2189 37.388 96.0749 37.3666 95.8829 37.3453C95.6909 37.324 95.5149 37.3133 95.3549 37.3133C95.1309 37.3133 94.9176 37.3293 94.7149 37.3613C94.5229 37.3826 94.3523 37.4306 94.2029 37.5053C94.0536 37.58 93.9363 37.6813 93.8509 37.8093C93.7656 37.9373 93.7229 38.0973 93.7229 38.2893C93.7229 38.6626 93.8456 38.924 94.0909 39.0733C94.3469 39.212 94.6936 39.2813 95.1309 39.2813ZM94.9389 32.3053C95.6429 32.3053 96.2296 32.3853 96.6989 32.5453C97.1683 32.7053 97.5416 32.9346 97.8189 33.2333C98.1069 33.532 98.3096 33.8946 98.4269 34.3213C98.5443 34.748 98.6029 35.2226 98.6029 35.7453V40.7053C98.2616 40.78 97.7869 40.8653 97.1789 40.9613C96.5709 41.068 95.8349 41.1213 94.9709 41.1213C94.4269 41.1213 93.9309 41.0733 93.4829 40.9773C93.0456 40.8813 92.6669 40.7266 92.3469 40.5133C92.0269 40.2893 91.7816 40.0013 91.6109 39.6493C91.4403 39.2973 91.3549 38.8653 91.3549 38.3533C91.3549 37.8626 91.4509 37.4466 91.6429 37.1053C91.8456 36.764 92.1123 36.492 92.4429 36.2893C92.7736 36.0866 93.1523 35.9426 93.5789 35.8573C94.0056 35.7613 94.4483 35.7133 94.9069 35.7133C95.2163 35.7133 95.4883 35.7293 95.7229 35.7613C95.9683 35.7826 96.1656 35.8146 96.3149 35.8573V35.6333C96.3149 35.228 96.1923 34.9026 95.9469 34.6573C95.7016 34.412 95.2749 34.2893 94.6669 34.2893C94.2616 34.2893 93.8616 34.3213 93.4669 34.3853C93.0723 34.4386 92.7309 34.5186 92.4429 34.6253L92.1389 32.7053C92.2776 32.6626 92.4483 32.62 92.6509 32.5773C92.8643 32.524 93.0936 32.4813 93.3389 32.4493C93.5843 32.4066 93.8403 32.3746 94.1069 32.3533C94.3843 32.3213 94.6616 32.3053 94.9389 32.3053ZM106.331 34.6413C106.117 34.588 105.867 34.5346 105.579 34.4813C105.291 34.4173 104.981 34.3853 104.651 34.3853C104.501 34.3853 104.32 34.4013 104.107 34.4333C103.904 34.4546 103.749 34.4813 103.643 34.5133V40.9453H101.259V32.9773C101.685 32.828 102.187 32.6893 102.763 32.5613C103.349 32.4226 104 32.3533 104.715 32.3533C104.843 32.3533 104.997 32.364 105.179 32.3853C105.36 32.396 105.541 32.4173 105.723 32.4493C105.904 32.4706 106.085 32.5026 106.267 32.5453C106.448 32.5773 106.603 32.62 106.731 32.6733L106.331 34.6413ZM110.925 39.2333C111.362 39.2333 111.671 39.1906 111.853 39.1053C112.034 39.02 112.125 38.8546 112.125 38.6093C112.125 38.4173 112.007 38.252 111.773 38.1133C111.538 37.964 111.181 37.7986 110.701 37.6173C110.327 37.4786 109.986 37.3346 109.677 37.1853C109.378 37.036 109.122 36.86 108.909 36.6573C108.695 36.444 108.53 36.1933 108.413 35.9053C108.295 35.6173 108.237 35.2706 108.237 34.8653C108.237 34.076 108.53 33.452 109.117 32.9933C109.703 32.5346 110.509 32.3053 111.533 32.3053C112.045 32.3053 112.535 32.3533 113.005 32.4493C113.474 32.5346 113.847 32.6306 114.125 32.7373L113.709 34.5933C113.431 34.4973 113.127 34.412 112.797 34.3373C112.477 34.2626 112.114 34.2253 111.709 34.2253C110.962 34.2253 110.589 34.4333 110.589 34.8493C110.589 34.9453 110.605 35.0306 110.637 35.1053C110.669 35.18 110.733 35.2546 110.829 35.3293C110.925 35.3933 111.053 35.468 111.213 35.5533C111.383 35.628 111.597 35.7133 111.853 35.8093C112.375 36.0013 112.807 36.1933 113.149 36.3853C113.49 36.5666 113.757 36.7693 113.949 36.9933C114.151 37.2066 114.29 37.4466 114.365 37.7133C114.45 37.98 114.493 38.2893 114.493 38.6413C114.493 39.4733 114.178 40.1026 113.549 40.5293C112.93 40.956 112.05 41.1693 110.909 41.1693C110.162 41.1693 109.538 41.1053 109.037 40.9773C108.546 40.8493 108.205 40.7426 108.013 40.6573L108.413 38.7213C108.818 38.8813 109.234 39.0093 109.661 39.1053C110.087 39.1906 110.509 39.2333 110.925 39.2333Z" fill="#001302"/>
<path d="M43.0118 14.9453V5.24331H49.2418V6.74131H44.7758V9.13531H48.7518V10.6053H44.7758V13.4473H49.5778V14.9453H43.0118ZM53.9723 10.0173L55.5263 7.62331H57.3043L54.8963 11.0813C55.4003 11.7346 55.881 12.3973 56.3383 13.0693C56.805 13.732 57.1876 14.3573 57.4863 14.9453H55.6523C55.5683 14.768 55.4563 14.5673 55.3163 14.3433C55.1856 14.11 55.041 13.872 54.8823 13.6293C54.733 13.3773 54.5743 13.13 54.4063 12.8873C54.2383 12.6446 54.075 12.416 53.9163 12.2013C53.5896 12.6213 53.2676 13.088 52.9503 13.6013C52.6423 14.1053 52.3856 14.5533 52.1803 14.9453H50.4443C50.5843 14.6653 50.7523 14.3666 50.9483 14.0493C51.1443 13.732 51.3543 13.41 51.5783 13.0833C51.8023 12.7473 52.031 12.416 52.2643 12.0893C52.507 11.7533 52.745 11.436 52.9783 11.1373L50.5563 7.62331H52.4183L53.9723 10.0173ZM63.7085 11.3193C63.7085 10.5633 63.5358 9.97531 63.1905 9.55531C62.8545 9.13531 62.3085 8.92531 61.5525 8.92531C61.3938 8.92531 61.2258 8.93465 61.0485 8.95331C60.8805 8.96265 60.7125 8.99065 60.5445 9.03731V13.2233C60.6938 13.326 60.8898 13.424 61.1325 13.5173C61.3845 13.6013 61.6505 13.6433 61.9305 13.6433C62.5465 13.6433 62.9945 13.4333 63.2745 13.0133C63.5638 12.5933 63.7085 12.0286 63.7085 11.3193ZM65.4445 11.2913C65.4445 11.8513 65.3698 12.3646 65.2205 12.8313C65.0805 13.298 64.8751 13.6993 64.6045 14.0353C64.3338 14.3713 63.9931 14.6326 63.5825 14.8193C63.1811 15.006 62.7238 15.0993 62.2105 15.0993C61.8651 15.0993 61.5478 15.0573 61.2585 14.9733C60.9691 14.8893 60.7311 14.796 60.5445 14.6933V17.5353H58.8505V7.86131C59.1958 7.76798 59.6205 7.67931 60.1245 7.59531C60.6285 7.51131 61.1605 7.46931 61.7205 7.46931C62.2991 7.46931 62.8171 7.55798 63.2745 7.73531C63.7318 7.91265 64.1191 8.16931 64.4365 8.50531C64.7631 8.83198 65.0105 9.23331 65.1785 9.70931C65.3558 10.176 65.4445 10.7033 65.4445 11.2913ZM66.8843 11.3193C66.8843 10.6753 66.9776 10.1106 67.1643 9.62531C67.3603 9.13998 67.617 8.73865 67.9343 8.42131C68.2516 8.09465 68.6156 7.85198 69.0263 7.69331C69.437 7.52531 69.857 7.44131 70.2863 7.44131C71.2943 7.44131 72.0783 7.75398 72.6383 8.37931C73.2076 9.00465 73.4923 9.93798 73.4923 11.1793C73.4923 11.2726 73.4876 11.38 73.4783 11.5013C73.4783 11.6133 73.4736 11.716 73.4643 11.8093H68.6343C68.681 12.3973 68.8863 12.8546 69.2503 13.1813C69.6236 13.4986 70.1603 13.6573 70.8603 13.6573C71.271 13.6573 71.6443 13.62 71.9803 13.5453C72.3256 13.4706 72.5963 13.3913 72.7923 13.3073L73.0163 14.6933C72.923 14.74 72.7923 14.7913 72.6243 14.8473C72.4656 14.894 72.279 14.936 72.0643 14.9733C71.859 15.02 71.635 15.0573 71.3923 15.0853C71.1496 15.1133 70.9023 15.1273 70.6503 15.1273C70.0063 15.1273 69.4463 15.034 68.9703 14.8473C68.4943 14.6513 68.1023 14.3853 67.7943 14.0493C67.4863 13.704 67.2576 13.3026 67.1083 12.8453C66.959 12.3786 66.8843 11.87 66.8843 11.3193ZM71.7983 10.5633C71.7983 10.33 71.7656 10.1106 71.7003 9.90531C71.635 9.69065 71.537 9.50865 71.4063 9.35931C71.285 9.20065 71.131 9.07931 70.9443 8.99531C70.767 8.90198 70.5523 8.85531 70.3003 8.85531C70.039 8.85531 69.8103 8.90665 69.6143 9.00931C69.4183 9.10265 69.2503 9.22865 69.1103 9.38731C68.9796 9.54598 68.877 9.72798 68.8023 9.93331C68.7276 10.1386 68.6763 10.3486 68.6483 10.5633H71.7983ZM79.5604 9.14931C79.4204 9.10265 79.2244 9.05598 78.9724 9.00931C78.7297 8.95331 78.445 8.92531 78.1184 8.92531C77.9317 8.92531 77.731 8.94398 77.5164 8.98131C77.311 9.01865 77.1664 9.05131 77.0824 9.07931V14.9453H75.3884V7.97331C75.715 7.85198 76.121 7.73998 76.6064 7.63731C77.101 7.52531 77.647 7.46931 78.2444 7.46931C78.3564 7.46931 78.487 7.47865 78.6364 7.49731C78.7857 7.50665 78.935 7.52531 79.0844 7.55331C79.2337 7.57198 79.3784 7.59998 79.5184 7.63731C79.6584 7.66531 79.7704 7.69331 79.8544 7.72131L79.5604 9.14931ZM82.8428 14.9453H81.1488V7.62331H82.8428V14.9453ZM83.0248 5.48131C83.0248 5.79865 82.9222 6.05065 82.7168 6.23731C82.5115 6.42398 82.2688 6.51731 81.9888 6.51731C81.6995 6.51731 81.4522 6.42398 81.2468 6.23731C81.0415 6.05065 80.9388 5.79865 80.9388 5.48131C80.9388 5.15465 81.0415 4.89798 81.2468 4.71131C81.4522 4.52465 81.6995 4.43131 81.9888 4.43131C82.2688 4.43131 82.5115 4.52465 82.7168 4.71131C82.9222 4.89798 83.0248 5.15465 83.0248 5.48131ZM84.698 11.3193C84.698 10.6753 84.7913 10.1106 84.978 9.62531C85.174 9.13998 85.4306 8.73865 85.748 8.42131C86.0653 8.09465 86.4293 7.85198 86.84 7.69331C87.2506 7.52531 87.6706 7.44131 88.1 7.44131C89.108 7.44131 89.892 7.75398 90.452 8.37931C91.0213 9.00465 91.306 9.93798 91.306 11.1793C91.306 11.2726 91.3013 11.38 91.292 11.5013C91.292 11.6133 91.2873 11.716 91.278 11.8093H86.448C86.4946 12.3973 86.7 12.8546 87.064 13.1813C87.4373 13.4986 87.974 13.6573 88.674 13.6573C89.0846 13.6573 89.458 13.62 89.794 13.5453C90.1393 13.4706 90.41 13.3913 90.606 13.3073L90.83 14.6933C90.7366 14.74 90.606 14.7913 90.438 14.8473C90.2793 14.894 90.0926 14.936 89.878 14.9733C89.6726 15.02 89.4486 15.0573 89.206 15.0853C88.9633 15.1133 88.716 15.1273 88.464 15.1273C87.82 15.1273 87.26 15.034 86.784 14.8473C86.308 14.6513 85.916 14.3853 85.608 14.0493C85.3 13.704 85.0713 13.3026 84.922 12.8453C84.7726 12.3786 84.698 11.87 84.698 11.3193ZM89.612 10.5633C89.612 10.33 89.5793 10.1106 89.514 9.90531C89.4486 9.69065 89.3506 9.50865 89.22 9.35931C89.0986 9.20065 88.9446 9.07931 88.758 8.99531C88.5806 8.90198 88.366 8.85531 88.114 8.85531C87.8526 8.85531 87.624 8.90665 87.428 9.00931C87.232 9.10265 87.064 9.22865 86.924 9.38731C86.7933 9.54598 86.6906 9.72798 86.616 9.93331C86.5413 10.1386 86.49 10.3486 86.462 10.5633H89.612ZM93.202 7.86131C93.5287 7.76798 93.9534 7.67931 94.476 7.59531C94.9987 7.51131 95.5774 7.46931 96.212 7.46931C96.8094 7.46931 97.3087 7.55331 97.71 7.72131C98.1114 7.87998 98.4287 8.10865 98.662 8.40731C98.9047 8.69665 99.0727 9.05131 99.166 9.47131C99.2687 9.88198 99.32 10.3346 99.32 10.8293V14.9453H97.626V11.0953C97.626 10.7033 97.598 10.372 97.542 10.1013C97.4954 9.82131 97.4114 9.59731 97.29 9.42931C97.178 9.25198 97.0194 9.12598 96.814 9.05131C96.618 8.96731 96.3754 8.92531 96.086 8.92531C95.8714 8.92531 95.6474 8.93931 95.414 8.96731C95.1807 8.99531 95.008 9.01865 94.896 9.03731V14.9453H93.202V7.86131ZM101.085 11.2913C101.085 10.75 101.169 10.246 101.337 9.77931C101.505 9.30331 101.743 8.89265 102.051 8.54731C102.369 8.20198 102.751 7.93131 103.199 7.73531C103.647 7.53931 104.151 7.44131 104.711 7.44131C105.402 7.44131 106.055 7.56731 106.671 7.81931L106.307 9.20531C106.111 9.12131 105.887 9.05131 105.635 8.99531C105.393 8.93931 105.131 8.91131 104.851 8.91131C104.189 8.91131 103.685 9.12131 103.339 9.54131C102.994 9.95198 102.821 10.5353 102.821 11.2913C102.821 12.0193 102.985 12.598 103.311 13.0273C103.638 13.4473 104.189 13.6573 104.963 13.6573C105.253 13.6573 105.537 13.6293 105.817 13.5733C106.097 13.5173 106.34 13.4473 106.545 13.3633L106.783 14.7633C106.597 14.8566 106.312 14.9406 105.929 15.0153C105.556 15.09 105.169 15.1273 104.767 15.1273C104.142 15.1273 103.596 15.034 103.129 14.8473C102.672 14.6513 102.289 14.3853 101.981 14.0493C101.683 13.704 101.459 13.298 101.309 12.8313C101.16 12.3553 101.085 11.842 101.085 11.2913ZM107.789 11.3193C107.789 10.6753 107.882 10.1106 108.069 9.62531C108.265 9.13998 108.522 8.73865 108.839 8.42131C109.156 8.09465 109.52 7.85198 109.931 7.69331C110.342 7.52531 110.762 7.44131 111.191 7.44131C112.199 7.44131 112.983 7.75398 113.543 8.37931C114.112 9.00465 114.397 9.93798 114.397 11.1793C114.397 11.2726 114.392 11.38 114.383 11.5013C114.383 11.6133 114.378 11.716 114.369 11.8093H109.539C109.586 12.3973 109.791 12.8546 110.155 13.1813C110.528 13.4986 111.065 13.6573 111.765 13.6573C112.176 13.6573 112.549 13.62 112.885 13.5453C113.23 13.4706 113.501 13.3913 113.697 13.3073L113.921 14.6933C113.828 14.74 113.697 14.7913 113.529 14.8473C113.37 14.894 113.184 14.936 112.969 14.9733C112.764 15.02 112.54 15.0573 112.297 15.0853C112.054 15.1133 111.807 15.1273 111.555 15.1273C110.911 15.1273 110.351 15.034 109.875 14.8473C109.399 14.6513 109.007 14.3853 108.699 14.0493C108.391 13.704 108.162 13.3026 108.013 12.8453C107.864 12.3786 107.789 11.87 107.789 11.3193ZM112.703 10.5633C112.703 10.33 112.67 10.1106 112.605 9.90531C112.54 9.69065 112.442 9.50865 112.311 9.35931C112.19 9.20065 112.036 9.07931 111.849 8.99531C111.672 8.90198 111.457 8.85531 111.205 8.85531C110.944 8.85531 110.715 8.90665 110.519 9.00931C110.323 9.10265 110.155 9.22865 110.015 9.38731C109.884 9.54598 109.782 9.72798 109.707 9.93331C109.632 10.1386 109.581 10.3486 109.553 10.5633H112.703Z" fill="#94A3B8"/>
<rect x="210.482" y="1.44531" width="2" height="42" rx="1" fill="#E2E8F0"/>
<path d="M314.786 39.0413C315.138 39.0413 315.426 39.0146 315.65 38.9613C315.885 38.8973 316.072 38.8173 316.21 38.7213C316.349 38.6146 316.445 38.492 316.498 38.3533C316.552 38.2146 316.578 38.06 316.578 37.8893C316.578 37.5266 316.408 37.228 316.066 36.9933C315.725 36.748 315.138 36.4866 314.306 36.2093C313.944 36.0813 313.581 35.9373 313.218 35.7773C312.856 35.6066 312.53 35.3986 312.242 35.1533C311.954 34.8973 311.72 34.5933 311.538 34.2413C311.357 33.8786 311.266 33.4413 311.266 32.9293C311.266 32.4173 311.362 31.9586 311.554 31.5533C311.746 31.1373 312.018 30.7853 312.37 30.4973C312.722 30.2093 313.149 29.9906 313.65 29.8413C314.152 29.6813 314.717 29.6013 315.346 29.6013C316.093 29.6013 316.738 29.6813 317.282 29.8413C317.826 30.0013 318.274 30.1773 318.626 30.3693L317.906 32.3373C317.597 32.1773 317.25 32.0386 316.866 31.9213C316.493 31.7933 316.04 31.7293 315.506 31.7293C314.909 31.7293 314.477 31.8146 314.21 31.9853C313.954 32.1453 313.826 32.396 313.826 32.7373C313.826 32.94 313.874 33.1106 313.97 33.2493C314.066 33.388 314.2 33.516 314.37 33.6333C314.552 33.74 314.754 33.8413 314.978 33.9373C315.213 34.0226 315.469 34.1133 315.746 34.2093C316.322 34.4226 316.824 34.636 317.25 34.8493C317.677 35.052 318.029 35.292 318.306 35.5693C318.594 35.8466 318.808 36.172 318.946 36.5453C319.085 36.9186 319.154 37.372 319.154 37.9053C319.154 38.94 318.792 39.7453 318.066 40.3213C317.341 40.8866 316.248 41.1693 314.786 41.1693C314.296 41.1693 313.853 41.1373 313.458 41.0733C313.064 41.02 312.712 40.9506 312.402 40.8653C312.104 40.78 311.842 40.6893 311.618 40.5933C311.405 40.4973 311.224 40.4066 311.074 40.3213L311.778 38.3373C312.109 38.5186 312.514 38.684 312.994 38.8333C313.485 38.972 314.082 39.0413 314.786 39.0413ZM321.015 36.8013C321.015 36.0546 321.127 35.404 321.351 34.8493C321.586 34.284 321.89 33.8146 322.263 33.4413C322.636 33.068 323.063 32.7853 323.543 32.5933C324.034 32.4013 324.535 32.3053 325.047 32.3053C326.242 32.3053 327.186 32.6733 327.879 33.4093C328.572 34.1346 328.919 35.2066 328.919 36.6253C328.919 36.764 328.914 36.9186 328.903 37.0893C328.892 37.2493 328.882 37.3933 328.871 37.5213H323.463C323.516 38.012 323.746 38.4013 324.151 38.6893C324.556 38.9773 325.1 39.1213 325.783 39.1213C326.22 39.1213 326.647 39.084 327.063 39.0093C327.49 38.924 327.836 38.8226 328.103 38.7053L328.423 40.6413C328.295 40.7053 328.124 40.7693 327.911 40.8333C327.698 40.8973 327.458 40.9506 327.191 40.9933C326.935 41.0466 326.658 41.0893 326.359 41.1213C326.06 41.1533 325.762 41.1693 325.463 41.1693C324.706 41.1693 324.044 41.0573 323.479 40.8333C322.924 40.6093 322.46 40.3053 322.087 39.9213C321.724 39.5266 321.452 39.0626 321.271 38.5293C321.1 37.996 321.015 37.42 321.015 36.8013ZM326.615 35.8893C326.604 35.6866 326.567 35.4893 326.503 35.2973C326.45 35.1053 326.359 34.9346 326.231 34.7853C326.114 34.636 325.959 34.5133 325.767 34.4173C325.586 34.3213 325.356 34.2733 325.079 34.2733C324.812 34.2733 324.583 34.3213 324.391 34.4173C324.199 34.5026 324.039 34.62 323.911 34.7693C323.783 34.9186 323.682 35.0946 323.607 35.2973C323.543 35.4893 323.495 35.6866 323.463 35.8893H326.615ZM331.259 32.8173C331.664 32.7 332.187 32.5933 332.827 32.4973C333.467 32.3906 334.139 32.3373 334.843 32.3373C335.557 32.3373 336.149 32.4333 336.619 32.6253C337.099 32.8066 337.477 33.068 337.755 33.4093C338.032 33.7506 338.229 34.156 338.347 34.6253C338.464 35.0946 338.523 35.6173 338.523 36.1933V40.9453H336.139V36.4813C336.139 35.7133 336.037 35.1693 335.835 34.8493C335.632 34.5293 335.253 34.3693 334.699 34.3693C334.528 34.3693 334.347 34.38 334.155 34.4013C333.963 34.412 333.792 34.428 333.643 34.4493V40.9453H331.259V32.8173ZM343.565 40.9453H341.181V32.5293H343.565V40.9453ZM343.789 30.0973C343.789 30.5346 343.645 30.8813 343.357 31.1373C343.079 31.3826 342.749 31.5053 342.365 31.5053C341.981 31.5053 341.645 31.3826 341.357 31.1373C341.079 30.8813 340.941 30.5346 340.941 30.0973C340.941 29.66 341.079 29.3186 341.357 29.0733C341.645 28.8173 341.981 28.6893 342.365 28.6893C342.749 28.6893 343.079 28.8173 343.357 29.0733C343.645 29.3186 343.789 29.66 343.789 30.0973ZM354.178 36.7213C354.178 37.3826 354.082 37.9906 353.89 38.5453C353.698 39.0893 353.42 39.5586 353.058 39.9533C352.695 40.3373 352.258 40.636 351.746 40.8493C351.244 41.0626 350.679 41.1693 350.05 41.1693C349.431 41.1693 348.866 41.0626 348.354 40.8493C347.852 40.636 347.42 40.3373 347.058 39.9533C346.695 39.5586 346.412 39.0893 346.21 38.5453C346.007 37.9906 345.906 37.3826 345.906 36.7213C345.906 36.06 346.007 35.4573 346.21 34.9133C346.423 34.3693 346.711 33.9053 347.074 33.5213C347.447 33.1373 347.884 32.8386 348.386 32.6253C348.898 32.412 349.452 32.3053 350.05 32.3053C350.658 32.3053 351.212 32.412 351.714 32.6253C352.226 32.8386 352.663 33.1373 353.026 33.5213C353.388 33.9053 353.671 34.3693 353.874 34.9133C354.076 35.4573 354.178 36.06 354.178 36.7213ZM351.746 36.7213C351.746 35.9853 351.596 35.4093 351.298 34.9933C351.01 34.5666 350.594 34.3533 350.05 34.3533C349.506 34.3533 349.084 34.5666 348.786 34.9933C348.487 35.4093 348.338 35.9853 348.338 36.7213C348.338 37.4573 348.487 38.044 348.786 38.4813C349.084 38.908 349.506 39.1213 350.05 39.1213C350.594 39.1213 351.01 38.908 351.298 38.4813C351.596 38.044 351.746 37.4573 351.746 36.7213ZM361.596 34.6413C361.383 34.588 361.132 34.5346 360.844 34.4813C360.556 34.4173 360.247 34.3853 359.916 34.3853C359.767 34.3853 359.586 34.4013 359.372 34.4333C359.17 34.4546 359.015 34.4813 358.908 34.5133V40.9453H356.524V32.9773C356.951 32.828 357.452 32.6893 358.028 32.5613C358.615 32.4226 359.266 32.3533 359.98 32.3533C360.108 32.3533 360.263 32.364 360.444 32.3853C360.626 32.396 360.807 32.4173 360.988 32.4493C361.17 32.4706 361.351 32.5026 361.532 32.5453C361.714 32.5773 361.868 32.62 361.996 32.6733L361.596 34.6413ZM375.686 38.8013V40.9453H368.278V29.8573H370.774V38.8013H375.686ZM377.234 36.8013C377.234 36.0546 377.346 35.404 377.57 34.8493C377.804 34.284 378.108 33.8146 378.482 33.4413C378.855 33.068 379.282 32.7853 379.762 32.5933C380.252 32.4013 380.754 32.3053 381.266 32.3053C382.46 32.3053 383.404 32.6733 384.098 33.4093C384.791 34.1346 385.138 35.2066 385.138 36.6253C385.138 36.764 385.132 36.9186 385.122 37.0893C385.111 37.2493 385.1 37.3933 385.09 37.5213H379.682C379.735 38.012 379.964 38.4013 380.37 38.6893C380.775 38.9773 381.319 39.1213 382.002 39.1213C382.439 39.1213 382.866 39.084 383.282 39.0093C383.708 38.924 384.055 38.8226 384.322 38.7053L384.642 40.6413C384.514 40.7053 384.343 40.7693 384.13 40.8333C383.916 40.8973 383.676 40.9506 383.41 40.9933C383.154 41.0466 382.876 41.0893 382.578 41.1213C382.279 41.1533 381.98 41.1693 381.682 41.1693C380.924 41.1693 380.263 41.0573 379.698 40.8333C379.143 40.6093 378.679 40.3053 378.306 39.9213C377.943 39.5266 377.671 39.0626 377.49 38.5293C377.319 37.996 377.234 37.42 377.234 36.8013ZM382.834 35.8893C382.823 35.6866 382.786 35.4893 382.722 35.2973C382.668 35.1053 382.578 34.9346 382.45 34.7853C382.332 34.636 382.178 34.5133 381.986 34.4173C381.804 34.3213 381.575 34.2733 381.298 34.2733C381.031 34.2733 380.802 34.3213 380.61 34.4173C380.418 34.5026 380.258 34.62 380.13 34.7693C380.002 34.9186 379.9 35.0946 379.826 35.2973C379.762 35.4893 379.714 35.6866 379.682 35.8893H382.834ZM389.765 40.9453C389.221 39.8786 388.667 38.6306 388.101 37.2013C387.547 35.772 387.019 34.2146 386.517 32.5293H389.045C389.152 32.9453 389.275 33.3986 389.413 33.8893C389.563 34.3693 389.712 34.86 389.861 35.3613C390.021 35.852 390.176 36.332 390.325 36.8013C390.485 37.2706 390.64 37.6973 390.789 38.0813C390.928 37.6973 391.077 37.2706 391.237 36.8013C391.397 36.332 391.552 35.852 391.701 35.3613C391.861 34.86 392.011 34.3693 392.149 33.8893C392.299 33.3986 392.427 32.9453 392.533 32.5293H394.997C394.496 34.2146 393.963 35.772 393.397 37.2013C392.843 38.6306 392.293 39.8786 391.749 40.9453H389.765ZM396.156 36.8013C396.156 36.0546 396.268 35.404 396.492 34.8493C396.726 34.284 397.03 33.8146 397.404 33.4413C397.777 33.068 398.204 32.7853 398.684 32.5933C399.174 32.4013 399.676 32.3053 400.188 32.3053C401.382 32.3053 402.326 32.6733 403.02 33.4093C403.713 34.1346 404.06 35.2066 404.06 36.6253C404.06 36.764 404.054 36.9186 404.044 37.0893C404.033 37.2493 404.022 37.3933 404.012 37.5213H398.604C398.657 38.012 398.886 38.4013 399.292 38.6893C399.697 38.9773 400.241 39.1213 400.924 39.1213C401.361 39.1213 401.788 39.084 402.204 39.0093C402.63 38.924 402.977 38.8226 403.244 38.7053L403.564 40.6413C403.436 40.7053 403.265 40.7693 403.052 40.8333C402.838 40.8973 402.598 40.9506 402.332 40.9933C402.076 41.0466 401.798 41.0893 401.5 41.1213C401.201 41.1533 400.902 41.1693 400.604 41.1693C399.846 41.1693 399.185 41.0573 398.62 40.8333C398.065 40.6093 397.601 40.3053 397.228 39.9213C396.865 39.5266 396.593 39.0626 396.412 38.5293C396.241 37.996 396.156 37.42 396.156 36.8013ZM401.756 35.8893C401.745 35.6866 401.708 35.4893 401.644 35.2973C401.59 35.1053 401.5 34.9346 401.372 34.7853C401.254 34.636 401.1 34.5133 400.908 34.4173C400.726 34.3213 400.497 34.2733 400.22 34.2733C399.953 34.2733 399.724 34.3213 399.532 34.4173C399.34 34.5026 399.18 34.62 399.052 34.7693C398.924 34.9186 398.822 35.0946 398.748 35.2973C398.684 35.4893 398.636 35.6866 398.604 35.8893H401.756ZM409.759 41.1053C409.066 41.0946 408.501 41.02 408.063 40.8813C407.637 40.7426 407.295 40.5506 407.039 40.3053C406.794 40.0493 406.623 39.7453 406.527 39.3933C406.442 39.0306 406.399 38.6253 406.399 38.1773V28.9133L408.783 28.5293V37.6973C408.783 37.9106 408.799 38.1026 408.831 38.2733C408.863 38.444 408.922 38.588 409.007 38.7053C409.103 38.8226 409.237 38.9186 409.407 38.9933C409.578 39.068 409.807 39.116 410.095 39.1373L409.759 41.1053Z" fill="#001302"/>
<path d="M310.996 13.6293C311.631 13.6293 312.093 13.522 312.382 13.3073C312.672 13.0926 312.816 12.7893 312.816 12.3973C312.816 12.164 312.765 11.9633 312.662 11.7953C312.569 11.6273 312.429 11.478 312.242 11.3473C312.065 11.2073 311.846 11.0813 311.584 10.9693C311.323 10.848 311.024 10.7313 310.688 10.6193C310.352 10.498 310.026 10.3673 309.708 10.2273C309.4 10.078 309.125 9.89598 308.882 9.68131C308.649 9.46665 308.458 9.20998 308.308 8.91131C308.168 8.61265 308.098 8.25331 308.098 7.83331C308.098 6.95598 308.402 6.26998 309.008 5.77531C309.615 5.27131 310.441 5.01931 311.486 5.01931C312.093 5.01931 312.63 5.08931 313.096 5.22931C313.572 5.35998 313.946 5.50465 314.216 5.66331L313.67 7.09131C313.353 6.91398 313.003 6.77865 312.62 6.68531C312.247 6.59198 311.86 6.54531 311.458 6.54531C310.982 6.54531 310.609 6.64331 310.338 6.83931C310.077 7.03531 309.946 7.31065 309.946 7.66531C309.946 7.87998 309.988 8.06665 310.072 8.22531C310.166 8.37465 310.292 8.50998 310.45 8.63131C310.618 8.75265 310.81 8.86465 311.024 8.96731C311.248 9.06998 311.491 9.16798 311.752 9.26131C312.21 9.42931 312.616 9.60198 312.97 9.77931C313.334 9.94731 313.638 10.1526 313.88 10.3953C314.132 10.6286 314.324 10.9086 314.454 11.2353C314.585 11.5526 314.65 11.94 314.65 12.3973C314.65 13.2746 314.338 13.956 313.712 14.4413C313.096 14.9173 312.191 15.1553 310.996 15.1553C310.595 15.1553 310.226 15.1273 309.89 15.0713C309.564 15.0246 309.27 14.964 309.008 14.8893C308.756 14.8146 308.537 14.74 308.35 14.6653C308.164 14.5813 308.014 14.5066 307.902 14.4413L308.42 12.9993C308.672 13.1393 309.013 13.2793 309.442 13.4193C309.872 13.5593 310.39 13.6293 310.996 13.6293ZM315.815 11.3193C315.815 10.6753 315.908 10.1106 316.095 9.62531C316.291 9.13998 316.548 8.73865 316.865 8.42131C317.182 8.09465 317.546 7.85198 317.957 7.69331C318.368 7.52531 318.788 7.44131 319.217 7.44131C320.225 7.44131 321.009 7.75398 321.569 8.37931C322.138 9.00465 322.423 9.93798 322.423 11.1793C322.423 11.2726 322.418 11.38 322.409 11.5013C322.409 11.6133 322.404 11.716 322.395 11.8093H317.565C317.612 12.3973 317.817 12.8546 318.181 13.1813C318.554 13.4986 319.091 13.6573 319.791 13.6573C320.202 13.6573 320.575 13.62 320.911 13.5453C321.256 13.4706 321.527 13.3913 321.723 13.3073L321.947 14.6933C321.854 14.74 321.723 14.7913 321.555 14.8473C321.396 14.894 321.21 14.936 320.995 14.9733C320.79 15.02 320.566 15.0573 320.323 15.0853C320.08 15.1133 319.833 15.1273 319.581 15.1273C318.937 15.1273 318.377 15.034 317.901 14.8473C317.425 14.6513 317.033 14.3853 316.725 14.0493C316.417 13.704 316.188 13.3026 316.039 12.8453C315.89 12.3786 315.815 11.87 315.815 11.3193ZM320.729 10.5633C320.729 10.33 320.696 10.1106 320.631 9.90531C320.566 9.69065 320.468 9.50865 320.337 9.35931C320.216 9.20065 320.062 9.07931 319.875 8.99531C319.698 8.90198 319.483 8.85531 319.231 8.85531C318.97 8.85531 318.741 8.90665 318.545 9.00931C318.349 9.10265 318.181 9.22865 318.041 9.38731C317.91 9.54598 317.808 9.72798 317.733 9.93331C317.658 10.1386 317.607 10.3486 317.579 10.5633H320.729ZM324.319 7.86131C324.646 7.76798 325.07 7.67931 325.593 7.59531C326.116 7.51131 326.694 7.46931 327.329 7.46931C327.926 7.46931 328.426 7.55331 328.827 7.72131C329.228 7.87998 329.546 8.10865 329.779 8.40731C330.022 8.69665 330.19 9.05131 330.283 9.47131C330.386 9.88198 330.437 10.3346 330.437 10.8293V14.9453H328.743V11.0953C328.743 10.7033 328.715 10.372 328.659 10.1013C328.612 9.82131 328.528 9.59731 328.407 9.42931C328.295 9.25198 328.136 9.12598 327.931 9.05131C327.735 8.96731 327.492 8.92531 327.203 8.92531C326.988 8.92531 326.764 8.93931 326.531 8.96731C326.298 8.99531 326.125 9.01865 326.013 9.03731V14.9453H324.319V7.86131ZM334.316 14.9453H332.622V7.62331H334.316V14.9453ZM334.498 5.48131C334.498 5.79865 334.396 6.05065 334.19 6.23731C333.985 6.42398 333.742 6.51731 333.462 6.51731C333.173 6.51731 332.926 6.42398 332.72 6.23731C332.515 6.05065 332.412 5.79865 332.412 5.48131C332.412 5.15465 332.515 4.89798 332.72 4.71131C332.926 4.52465 333.173 4.43131 333.462 4.43131C333.742 4.43131 333.985 4.52465 334.19 4.71131C334.396 4.89798 334.498 5.15465 334.498 5.48131ZM343.2 11.2773C343.2 11.856 343.116 12.3833 342.948 12.8593C342.78 13.3353 342.542 13.7413 342.234 14.0773C341.926 14.4133 341.552 14.6746 341.114 14.8613C340.684 15.048 340.208 15.1413 339.686 15.1413C339.163 15.1413 338.687 15.048 338.258 14.8613C337.828 14.6746 337.46 14.4133 337.152 14.0773C336.844 13.7413 336.601 13.3353 336.424 12.8593C336.256 12.3833 336.172 11.856 336.172 11.2773C336.172 10.6986 336.256 10.176 336.424 9.70931C336.601 9.23331 336.844 8.82731 337.152 8.49131C337.469 8.15531 337.842 7.89865 338.272 7.72131C338.701 7.53465 339.172 7.44131 339.686 7.44131C340.199 7.44131 340.67 7.53465 341.1 7.72131C341.538 7.89865 341.912 8.15531 342.22 8.49131C342.528 8.82731 342.766 9.23331 342.934 9.70931C343.111 10.176 343.2 10.6986 343.2 11.2773ZM341.464 11.2773C341.464 10.5493 341.305 9.97531 340.988 9.55531C340.68 9.12598 340.246 8.91131 339.686 8.91131C339.126 8.91131 338.687 9.12598 338.37 9.55531C338.062 9.97531 337.908 10.5493 337.908 11.2773C337.908 12.0146 338.062 12.598 338.37 13.0273C338.687 13.4566 339.126 13.6713 339.686 13.6713C340.246 13.6713 340.68 13.4566 340.988 13.0273C341.305 12.598 341.464 12.0146 341.464 11.2773ZM349.217 9.14931C349.077 9.10265 348.881 9.05598 348.629 9.00931C348.386 8.95331 348.101 8.92531 347.775 8.92531C347.588 8.92531 347.387 8.94398 347.173 8.98131C346.967 9.01865 346.823 9.05131 346.739 9.07931V14.9453H345.045V7.97331C345.371 7.85198 345.777 7.73998 346.263 7.63731C346.757 7.52531 347.303 7.46931 347.901 7.46931C348.013 7.46931 348.143 7.47865 348.293 7.49731C348.442 7.50665 348.591 7.52531 348.741 7.55331C348.89 7.57198 349.035 7.59998 349.175 7.63731C349.315 7.66531 349.427 7.69331 349.511 7.72131L349.217 9.14931ZM352.499 14.9453H350.805V7.62331H352.499V14.9453ZM352.681 5.48131C352.681 5.79865 352.579 6.05065 352.373 6.23731C352.168 6.42398 351.925 6.51731 351.645 6.51731C351.356 6.51731 351.109 6.42398 350.903 6.23731C350.698 6.05065 350.595 5.79865 350.595 5.48131C350.595 5.15465 350.698 4.89798 350.903 4.71131C351.109 4.52465 351.356 4.43131 351.645 4.43131C351.925 4.43131 352.168 4.52465 352.373 4.71131C352.579 4.89798 352.681 5.15465 352.681 5.48131ZM354.676 5.69131L356.37 5.41131V7.62331H358.974V9.03731H356.37V12.0193C356.37 12.6073 356.464 13.0273 356.65 13.2793C356.837 13.5313 357.154 13.6573 357.602 13.6573C357.91 13.6573 358.181 13.6246 358.414 13.5593C358.657 13.494 358.848 13.4333 358.988 13.3773L359.268 14.7213C359.072 14.8053 358.816 14.8893 358.498 14.9733C358.181 15.0666 357.808 15.1133 357.378 15.1133C356.856 15.1133 356.417 15.0433 356.062 14.9033C355.717 14.7633 355.442 14.5626 355.236 14.3013C355.031 14.0306 354.886 13.7086 354.802 13.3353C354.718 12.9526 354.676 12.5186 354.676 12.0333V5.69131ZM366.69 7.62331C365.934 10.4046 365.057 12.9246 364.058 15.1833C363.871 15.6033 363.68 15.9626 363.484 16.2613C363.288 16.56 363.069 16.8073 362.826 17.0033C362.583 17.1993 362.313 17.3393 362.014 17.4233C361.715 17.5166 361.37 17.5633 360.978 17.5633C360.717 17.5633 360.455 17.5353 360.194 17.4793C359.942 17.4233 359.751 17.3626 359.62 17.2973L359.928 15.9393C360.264 16.07 360.595 16.1353 360.922 16.1353C361.361 16.1353 361.701 16.028 361.944 15.8133C362.196 15.608 362.415 15.286 362.602 14.8473C362.07 13.8206 361.557 12.7006 361.062 11.4873C360.577 10.274 360.143 8.98598 359.76 7.62331H361.566C361.659 8.01531 361.771 8.43998 361.902 8.89731C362.042 9.35465 362.191 9.82131 362.35 10.2973C362.509 10.764 362.677 11.2306 362.854 11.6973C363.031 12.164 363.209 12.598 363.386 12.9993C363.685 12.1686 363.965 11.2866 364.226 10.3533C364.487 9.41065 364.725 8.50065 364.94 7.62331H366.69ZM377.655 13.4193V14.9453H371.523V5.24331H373.287V13.4193H377.655ZM378.475 11.3193C378.475 10.6753 378.568 10.1106 378.755 9.62531C378.951 9.13998 379.208 8.73865 379.525 8.42131C379.842 8.09465 380.206 7.85198 380.617 7.69331C381.028 7.52531 381.448 7.44131 381.877 7.44131C382.885 7.44131 383.669 7.75398 384.229 8.37931C384.798 9.00465 385.083 9.93798 385.083 11.1793C385.083 11.2726 385.078 11.38 385.069 11.5013C385.069 11.6133 385.064 11.716 385.055 11.8093H380.225C380.272 12.3973 380.477 12.8546 380.841 13.1813C381.214 13.4986 381.751 13.6573 382.451 13.6573C382.862 13.6573 383.235 13.62 383.571 13.5453C383.916 13.4706 384.187 13.3913 384.383 13.3073L384.607 14.6933C384.514 14.74 384.383 14.7913 384.215 14.8473C384.056 14.894 383.87 14.936 383.655 14.9733C383.45 15.02 383.226 15.0573 382.983 15.0853C382.74 15.1133 382.493 15.1273 382.241 15.1273C381.597 15.1273 381.037 15.034 380.561 14.8473C380.085 14.6513 379.693 14.3853 379.385 14.0493C379.077 13.704 378.848 13.3026 378.699 12.8453C378.55 12.3786 378.475 11.87 378.475 11.3193ZM383.389 10.5633C383.389 10.33 383.356 10.1106 383.291 9.90531C383.226 9.69065 383.128 9.50865 382.997 9.35931C382.876 9.20065 382.722 9.07931 382.535 8.99531C382.358 8.90198 382.143 8.85531 381.891 8.85531C381.63 8.85531 381.401 8.90665 381.205 9.00931C381.009 9.10265 380.841 9.22865 380.701 9.38731C380.57 9.54598 380.468 9.72798 380.393 9.93331C380.318 10.1386 380.267 10.3486 380.239 10.5633H383.389ZM388.855 14.9453C388.389 13.984 387.908 12.8826 387.413 11.6413C386.928 10.3906 386.485 9.05131 386.083 7.62331H387.889C387.992 8.03398 388.109 8.47731 388.239 8.95331C388.379 9.41998 388.524 9.89131 388.673 10.3673C388.832 10.834 388.991 11.2913 389.149 11.7393C389.317 12.178 389.471 12.5746 389.611 12.9293C389.751 12.5746 389.901 12.178 390.059 11.7393C390.218 11.2913 390.372 10.834 390.521 10.3673C390.68 9.89131 390.829 9.41998 390.969 8.95331C391.109 8.47731 391.231 8.03398 391.333 7.62331H393.083C392.682 9.05131 392.234 10.3906 391.739 11.6413C391.254 12.8826 390.778 13.984 390.311 14.9453H388.855ZM393.878 11.3193C393.878 10.6753 393.972 10.1106 394.158 9.62531C394.354 9.13998 394.611 8.73865 394.928 8.42131C395.246 8.09465 395.61 7.85198 396.02 7.69331C396.431 7.52531 396.851 7.44131 397.28 7.44131C398.288 7.44131 399.072 7.75398 399.632 8.37931C400.202 9.00465 400.486 9.93798 400.486 11.1793C400.486 11.2726 400.482 11.38 400.472 11.5013C400.472 11.6133 400.468 11.716 400.458 11.8093H395.628C395.675 12.3973 395.88 12.8546 396.244 13.1813C396.618 13.4986 397.154 13.6573 397.854 13.6573C398.265 13.6573 398.638 13.62 398.974 13.5453C399.32 13.4706 399.59 13.3913 399.786 13.3073L400.01 14.6933C399.917 14.74 399.786 14.7913 399.618 14.8473C399.46 14.894 399.273 14.936 399.058 14.9733C398.853 15.02 398.629 15.0573 398.386 15.0853C398.144 15.1133 397.896 15.1273 397.644 15.1273C397 15.1273 396.44 15.034 395.964 14.8473C395.488 14.6513 395.096 14.3853 394.788 14.0493C394.48 13.704 394.252 13.3026 394.102 12.8453C393.953 12.3786 393.878 11.87 393.878 11.3193ZM398.792 10.5633C398.792 10.33 398.76 10.1106 398.694 9.90531C398.629 9.69065 398.531 9.50865 398.4 9.35931C398.279 9.20065 398.125 9.07931 397.938 8.99531C397.761 8.90198 397.546 8.85531 397.294 8.85531C397.033 8.85531 396.804 8.90665 396.608 9.00931C396.412 9.10265 396.244 9.22865 396.104 9.38731C395.974 9.54598 395.871 9.72798 395.796 9.93331C395.722 10.1386 395.67 10.3486 395.642 10.5633H398.792ZM404.93 15.0853C404.426 15.076 404.006 15.02 403.67 14.9173C403.344 14.8146 403.082 14.67 402.886 14.4833C402.69 14.2873 402.55 14.0493 402.466 13.7693C402.392 13.48 402.354 13.1533 402.354 12.7893V4.36131L404.048 4.08131V12.4673C404.048 12.6726 404.062 12.8453 404.09 12.9853C404.128 13.1253 404.188 13.2466 404.272 13.3493C404.356 13.4426 404.468 13.5173 404.608 13.5733C404.758 13.62 404.944 13.6573 405.168 13.6853L404.93 15.0853Z" fill="#94A3B8"/>
<rect x="505.482" y="1.44531" width="2" height="42" rx="1" fill="#E2E8F0"/>
<path d="M610.762 40.9453V29.8573H618.186V31.9533H613.258V34.2733H617.642V36.3693H613.258V40.9453H610.762ZM627.161 40.6573C626.756 40.7746 626.233 40.8813 625.593 40.9773C624.953 41.084 624.281 41.1373 623.577 41.1373C622.863 41.1373 622.265 41.0413 621.785 40.8493C621.316 40.6573 620.943 40.3906 620.665 40.0493C620.388 39.6973 620.191 39.2813 620.073 38.8013C619.956 38.3213 619.897 37.7933 619.897 37.2173V32.5293H622.281V36.9293C622.281 37.6973 622.383 38.252 622.585 38.5933C622.788 38.9346 623.167 39.1053 623.721 39.1053C623.892 39.1053 624.073 39.1 624.265 39.0893C624.457 39.068 624.628 39.0466 624.777 39.0253V32.5293H627.161V40.6573ZM633.259 41.1053C632.566 41.0946 632.001 41.02 631.563 40.8813C631.137 40.7426 630.795 40.5506 630.539 40.3053C630.294 40.0493 630.123 39.7453 630.027 39.3933C629.942 39.0306 629.899 38.6253 629.899 38.1773V28.9133L632.283 28.5293V37.6973C632.283 37.9106 632.299 38.1026 632.331 38.2733C632.363 38.444 632.422 38.588 632.507 38.7053C632.603 38.8226 632.737 38.9186 632.907 38.9933C633.078 39.068 633.307 39.116 633.595 39.1373L633.259 41.1053ZM638.822 41.1053C638.128 41.0946 637.563 41.02 637.126 40.8813C636.699 40.7426 636.358 40.5506 636.102 40.3053C635.856 40.0493 635.686 39.7453 635.59 39.3933C635.504 39.0306 635.462 38.6253 635.462 38.1773V28.9133L637.846 28.5293V37.6973C637.846 37.9106 637.862 38.1026 637.894 38.2733C637.926 38.444 637.984 38.588 638.07 38.7053C638.166 38.8226 638.299 38.9186 638.47 38.9933C638.64 39.068 638.87 39.116 639.158 39.1373L638.822 41.1053ZM653.752 29.8573V31.9853H650.408V40.9453H647.912V31.9853H644.568V29.8573H653.752ZM658.08 40.9453H655.696V32.5293H658.08V40.9453ZM658.304 30.0973C658.304 30.5346 658.16 30.8813 657.872 31.1373C657.595 31.3826 657.264 31.5053 656.88 31.5053C656.496 31.5053 656.16 31.3826 655.872 31.1373C655.595 30.8813 655.456 30.5346 655.456 30.0973C655.456 29.66 655.595 29.3186 655.872 29.0733C656.16 28.8173 656.496 28.6893 656.88 28.6893C657.264 28.6893 657.595 28.8173 657.872 29.0733C658.16 29.3186 658.304 29.66 658.304 30.0973ZM665.445 36.4813C665.445 35.7133 665.344 35.1693 665.141 34.8493C664.949 34.5293 664.613 34.3693 664.133 34.3693C663.984 34.3693 663.829 34.38 663.669 34.4013C663.509 34.412 663.355 34.428 663.205 34.4493V40.9453H660.821V32.8173C661.024 32.764 661.259 32.7106 661.525 32.6573C661.803 32.5933 662.091 32.54 662.389 32.4973C662.699 32.444 663.013 32.4066 663.333 32.3853C663.653 32.3533 663.968 32.3373 664.277 32.3373C664.885 32.3373 665.376 32.4173 665.749 32.5773C666.133 32.7266 666.448 32.908 666.693 33.1213C667.035 32.876 667.424 32.684 667.861 32.5453C668.309 32.4066 668.72 32.3373 669.093 32.3373C669.765 32.3373 670.315 32.4333 670.741 32.6253C671.179 32.8066 671.525 33.068 671.781 33.4093C672.037 33.7506 672.213 34.156 672.309 34.6253C672.405 35.0946 672.453 35.6173 672.453 36.1933V40.9453H670.069V36.4813C670.069 35.7133 669.968 35.1693 669.765 34.8493C669.573 34.5293 669.237 34.3693 668.757 34.3693C668.629 34.3693 668.448 34.4013 668.213 34.4653C667.989 34.5293 667.803 34.6093 667.653 34.7053C667.728 34.9506 667.776 35.212 667.797 35.4893C667.819 35.756 667.829 36.044 667.829 36.3533V40.9453H665.445V36.4813ZM674.718 36.8013C674.718 36.0546 674.83 35.404 675.054 34.8493C675.289 34.284 675.593 33.8146 675.966 33.4413C676.339 33.068 676.766 32.7853 677.246 32.5933C677.737 32.4013 678.238 32.3053 678.75 32.3053C679.945 32.3053 680.889 32.6733 681.582 33.4093C682.275 34.1346 682.622 35.2066 682.622 36.6253C682.622 36.764 682.617 36.9186 682.606 37.0893C682.595 37.2493 682.585 37.3933 682.574 37.5213H677.166C677.219 38.012 677.449 38.4013 677.854 38.6893C678.259 38.9773 678.803 39.1213 679.486 39.1213C679.923 39.1213 680.35 39.084 680.766 39.0093C681.193 38.924 681.539 38.8226 681.806 38.7053L682.126 40.6413C681.998 40.7053 681.827 40.7693 681.614 40.8333C681.401 40.8973 681.161 40.9506 680.894 40.9933C680.638 41.0466 680.361 41.0893 680.062 41.1213C679.763 41.1533 679.465 41.1693 679.166 41.1693C678.409 41.1693 677.747 41.0573 677.182 40.8333C676.627 40.6093 676.163 40.3053 675.79 39.9213C675.427 39.5266 675.155 39.0626 674.974 38.5293C674.803 37.996 674.718 37.42 674.718 36.8013ZM680.318 35.8893C680.307 35.6866 680.27 35.4893 680.206 35.2973C680.153 35.1053 680.062 34.9346 679.934 34.7853C679.817 34.636 679.662 34.5133 679.47 34.4173C679.289 34.3213 679.059 34.2733 678.782 34.2733C678.515 34.2733 678.286 34.3213 678.094 34.4173C677.902 34.5026 677.742 34.62 677.614 34.7693C677.486 34.9186 677.385 35.0946 677.31 35.2973C677.246 35.4893 677.198 35.6866 677.166 35.8893H680.318Z" fill="#001302"/>
<path d="M603.644 14.9453V5.24331H609.874V6.74131H605.408V9.13531H609.384V10.6053H605.408V13.4473H610.21V14.9453H603.644ZM616.036 11.0953C616.036 10.33 615.938 9.77931 615.742 9.44331C615.555 9.09798 615.2 8.92531 614.678 8.92531C614.491 8.92531 614.286 8.93931 614.062 8.96731C613.838 8.99531 613.67 9.01865 613.558 9.03731V14.9453H611.864V7.86131C612.19 7.76798 612.615 7.67931 613.138 7.59531C613.67 7.51131 614.23 7.46931 614.818 7.46931C615.322 7.46931 615.732 7.53465 616.05 7.66531C616.376 7.79598 616.647 7.96865 616.862 8.18331C616.964 8.10865 617.095 8.02931 617.254 7.94531C617.412 7.86131 617.59 7.78665 617.786 7.72131C617.982 7.64665 618.187 7.58598 618.402 7.53931C618.626 7.49265 618.85 7.46931 619.074 7.46931C619.643 7.46931 620.11 7.55331 620.474 7.72131C620.847 7.87998 621.136 8.10865 621.342 8.40731C621.556 8.69665 621.701 9.05131 621.776 9.47131C621.86 9.88198 621.902 10.3346 621.902 10.8293V14.9453H620.208V11.0953C620.208 10.33 620.114 9.77931 619.928 9.44331C619.741 9.09798 619.382 8.92531 618.85 8.92531C618.579 8.92531 618.322 8.97198 618.08 9.06531C617.837 9.14931 617.655 9.23331 617.534 9.31731C617.608 9.55065 617.66 9.79798 617.688 10.0593C617.716 10.3206 617.73 10.6006 617.73 10.8993V14.9453H616.036V11.0953ZM628.935 11.3193C628.935 10.5633 628.762 9.97531 628.417 9.55531C628.081 9.13531 627.535 8.92531 626.779 8.92531C626.62 8.92531 626.452 8.93465 626.275 8.95331C626.107 8.96265 625.939 8.99065 625.771 9.03731V13.2233C625.92 13.326 626.116 13.424 626.359 13.5173C626.611 13.6013 626.877 13.6433 627.157 13.6433C627.773 13.6433 628.221 13.4333 628.501 13.0133C628.79 12.5933 628.935 12.0286 628.935 11.3193ZM630.671 11.2913C630.671 11.8513 630.596 12.3646 630.447 12.8313C630.307 13.298 630.101 13.6993 629.831 14.0353C629.56 14.3713 629.219 14.6326 628.809 14.8193C628.407 15.006 627.95 15.0993 627.437 15.0993C627.091 15.0993 626.774 15.0573 626.485 14.9733C626.195 14.8893 625.957 14.796 625.771 14.6933V17.5353H624.077V7.86131C624.422 7.76798 624.847 7.67931 625.351 7.59531C625.855 7.51131 626.387 7.46931 626.947 7.46931C627.525 7.46931 628.043 7.55798 628.501 7.73531C628.958 7.91265 629.345 8.16931 629.663 8.50531C629.989 8.83198 630.237 9.23331 630.405 9.70931C630.582 10.176 630.671 10.7033 630.671 11.2913ZM635.065 15.0853C634.561 15.076 634.141 15.02 633.805 14.9173C633.478 14.8146 633.217 14.67 633.021 14.4833C632.825 14.2873 632.685 14.0493 632.601 13.7693C632.526 13.48 632.489 13.1533 632.489 12.7893V4.36131L634.183 4.08131V12.4673C634.183 12.6726 634.197 12.8453 634.225 12.9853C634.262 13.1253 634.323 13.2466 634.407 13.3493C634.491 13.4426 634.603 13.5173 634.743 13.5733C634.892 13.62 635.079 13.6573 635.303 13.6853L635.065 15.0853ZM643.395 11.2773C643.395 11.856 643.311 12.3833 643.143 12.8593C642.975 13.3353 642.737 13.7413 642.429 14.0773C642.121 14.4133 641.748 14.6746 641.309 14.8613C640.88 15.048 640.404 15.1413 639.881 15.1413C639.358 15.1413 638.882 15.048 638.453 14.8613C638.024 14.6746 637.655 14.4133 637.347 14.0773C637.039 13.7413 636.796 13.3353 636.619 12.8593C636.451 12.3833 636.367 11.856 636.367 11.2773C636.367 10.6986 636.451 10.176 636.619 9.70931C636.796 9.23331 637.039 8.82731 637.347 8.49131C637.664 8.15531 638.038 7.89865 638.467 7.72131C638.896 7.53465 639.368 7.44131 639.881 7.44131C640.394 7.44131 640.866 7.53465 641.295 7.72131C641.734 7.89865 642.107 8.15531 642.415 8.49131C642.723 8.82731 642.961 9.23331 643.129 9.70931C643.306 10.176 643.395 10.6986 643.395 11.2773ZM641.659 11.2773C641.659 10.5493 641.5 9.97531 641.183 9.55531C640.875 9.12598 640.441 8.91131 639.881 8.91131C639.321 8.91131 638.882 9.12598 638.565 9.55531C638.257 9.97531 638.103 10.5493 638.103 11.2773C638.103 12.0146 638.257 12.598 638.565 13.0273C638.882 13.4566 639.321 13.6713 639.881 13.6713C640.441 13.6713 640.875 13.4566 641.183 13.0273C641.5 12.598 641.659 12.0146 641.659 11.2773ZM651.054 7.62331C650.298 10.4046 649.421 12.9246 648.422 15.1833C648.235 15.6033 648.044 15.9626 647.848 16.2613C647.652 16.56 647.433 16.8073 647.19 17.0033C646.947 17.1993 646.677 17.3393 646.378 17.4233C646.079 17.5166 645.734 17.5633 645.342 17.5633C645.081 17.5633 644.819 17.5353 644.558 17.4793C644.306 17.4233 644.115 17.3626 643.984 17.2973L644.292 15.9393C644.628 16.07 644.959 16.1353 645.286 16.1353C645.725 16.1353 646.065 16.028 646.308 15.8133C646.56 15.608 646.779 15.286 646.966 14.8473C646.434 13.8206 645.921 12.7006 645.426 11.4873C644.941 10.274 644.507 8.98598 644.124 7.62331H645.93C646.023 8.01531 646.135 8.43998 646.266 8.89731C646.406 9.35465 646.555 9.82131 646.714 10.2973C646.873 10.764 647.041 11.2306 647.218 11.6973C647.395 12.164 647.573 12.598 647.75 12.9993C648.049 12.1686 648.329 11.2866 648.59 10.3533C648.851 9.41065 649.089 8.50065 649.304 7.62331H651.054ZM656.608 11.0953C656.608 10.33 656.51 9.77931 656.314 9.44331C656.127 9.09798 655.772 8.92531 655.25 8.92531C655.063 8.92531 654.858 8.93931 654.634 8.96731C654.41 8.99531 654.242 9.01865 654.13 9.03731V14.9453H652.436V7.86131C652.762 7.76798 653.187 7.67931 653.71 7.59531C654.242 7.51131 654.802 7.46931 655.39 7.46931C655.894 7.46931 656.304 7.53465 656.622 7.66531C656.948 7.79598 657.219 7.96865 657.434 8.18331C657.536 8.10865 657.667 8.02931 657.826 7.94531C657.984 7.86131 658.162 7.78665 658.358 7.72131C658.554 7.64665 658.759 7.58598 658.974 7.53931C659.198 7.49265 659.422 7.46931 659.646 7.46931C660.215 7.46931 660.682 7.55331 661.046 7.72131C661.419 7.87998 661.708 8.10865 661.914 8.40731C662.128 8.69665 662.273 9.05131 662.348 9.47131C662.432 9.88198 662.474 10.3346 662.474 10.8293V14.9453H660.78V11.0953C660.78 10.33 660.686 9.77931 660.5 9.44331C660.313 9.09798 659.954 8.92531 659.422 8.92531C659.151 8.92531 658.894 8.97198 658.652 9.06531C658.409 9.14931 658.227 9.23331 658.106 9.31731C658.18 9.55065 658.232 9.79798 658.26 10.0593C658.288 10.3206 658.302 10.6006 658.302 10.8993V14.9453H656.608V11.0953ZM664.243 11.3193C664.243 10.6753 664.336 10.1106 664.523 9.62531C664.719 9.13998 664.976 8.73865 665.293 8.42131C665.61 8.09465 665.974 7.85198 666.385 7.69331C666.796 7.52531 667.216 7.44131 667.645 7.44131C668.653 7.44131 669.437 7.75398 669.997 8.37931C670.566 9.00465 670.851 9.93798 670.851 11.1793C670.851 11.2726 670.846 11.38 670.837 11.5013C670.837 11.6133 670.832 11.716 670.823 11.8093H665.993C666.04 12.3973 666.245 12.8546 666.609 13.1813C666.982 13.4986 667.519 13.6573 668.219 13.6573C668.63 13.6573 669.003 13.62 669.339 13.5453C669.684 13.4706 669.955 13.3913 670.151 13.3073L670.375 14.6933C670.282 14.74 670.151 14.7913 669.983 14.8473C669.824 14.894 669.638 14.936 669.423 14.9733C669.218 15.02 668.994 15.0573 668.751 15.0853C668.508 15.1133 668.261 15.1273 668.009 15.1273C667.365 15.1273 666.805 15.034 666.329 14.8473C665.853 14.6513 665.461 14.3853 665.153 14.0493C664.845 13.704 664.616 13.3026 664.467 12.8453C664.318 12.3786 664.243 11.87 664.243 11.3193ZM669.157 10.5633C669.157 10.33 669.124 10.1106 669.059 9.90531C668.994 9.69065 668.896 9.50865 668.765 9.35931C668.644 9.20065 668.49 9.07931 668.303 8.99531C668.126 8.90198 667.911 8.85531 667.659 8.85531C667.398 8.85531 667.169 8.90665 666.973 9.00931C666.777 9.10265 666.609 9.22865 666.469 9.38731C666.338 9.54598 666.236 9.72798 666.161 9.93331C666.086 10.1386 666.035 10.3486 666.007 10.5633H669.157ZM672.747 7.86131C673.074 7.76798 673.498 7.67931 674.021 7.59531C674.544 7.51131 675.122 7.46931 675.757 7.46931C676.354 7.46931 676.854 7.55331 677.255 7.72131C677.656 7.87998 677.974 8.10865 678.207 8.40731C678.45 8.69665 678.618 9.05131 678.711 9.47131C678.814 9.88198 678.865 10.3346 678.865 10.8293V14.9453H677.171V11.0953C677.171 10.7033 677.143 10.372 677.087 10.1013C677.04 9.82131 676.956 9.59731 676.835 9.42931C676.723 9.25198 676.564 9.12598 676.359 9.05131C676.163 8.96731 675.92 8.92531 675.631 8.92531C675.416 8.92531 675.192 8.93931 674.959 8.96731C674.726 8.99531 674.553 9.01865 674.441 9.03731V14.9453H672.747V7.86131ZM680.953 5.69131L682.647 5.41131V7.62331H685.251V9.03731H682.647V12.0193C682.647 12.6073 682.74 13.0273 682.927 13.2793C683.113 13.5313 683.431 13.6573 683.879 13.6573C684.187 13.6573 684.457 13.6246 684.691 13.5593C684.933 13.494 685.125 13.4333 685.265 13.3773L685.545 14.7213C685.349 14.8053 685.092 14.8893 684.775 14.9733C684.457 15.0666 684.084 15.1133 683.655 15.1133C683.132 15.1133 682.693 15.0433 682.339 14.9033C681.993 14.7633 681.718 14.5626 681.513 14.3013C681.307 14.0306 681.163 13.7086 681.079 13.3353C680.995 12.9526 680.953 12.5186 680.953 12.0333V5.69131Z" fill="#94A3B8"/>
<rect x="781.482" y="1.44531" width="2" height="42" rx="1" fill="#E2E8F0"/>
<path d="M882.018 40.7853C881.24 40.7213 880.605 40.604 880.114 40.4333C879.634 40.252 879.277 40.1026 879.042 39.9853L879.73 38.1453C880.104 38.3266 880.546 38.492 881.058 38.6413C881.581 38.7906 882.13 38.8653 882.706 38.8653C883.357 38.8653 883.8 38.78 884.034 38.6093C884.28 38.428 884.402 38.1773 884.402 37.8573C884.402 37.6546 884.354 37.484 884.258 37.3453C884.162 37.196 884.024 37.0626 883.842 36.9453C883.661 36.828 883.432 36.716 883.154 36.6093C882.877 36.492 882.557 36.3693 882.194 36.2413C881.842 36.1133 881.496 35.9746 881.154 35.8253C880.824 35.6653 880.52 35.4733 880.242 35.2493C879.976 35.0253 879.757 34.7533 879.586 34.4333C879.426 34.1026 879.346 33.708 879.346 33.2493C879.346 32.8973 879.394 32.5613 879.49 32.2413C879.597 31.9106 879.757 31.612 879.97 31.3453C880.184 31.0786 880.461 30.8546 880.802 30.6733C881.144 30.4813 881.549 30.3426 882.018 30.2573V28.5293H884.034V30.1933C884.589 30.2466 885.064 30.3266 885.458 30.4333C885.864 30.54 886.184 30.6466 886.418 30.7533L885.922 32.6733C885.57 32.524 885.16 32.396 884.69 32.2893C884.232 32.1826 883.746 32.1293 883.234 32.1293C882.722 32.1293 882.354 32.2146 882.13 32.3853C881.906 32.556 881.794 32.78 881.794 33.0573C881.794 33.228 881.826 33.3773 881.89 33.5053C881.965 33.6226 882.077 33.7293 882.226 33.8253C882.376 33.9213 882.557 34.0173 882.77 34.1133C882.994 34.1986 883.261 34.2946 883.57 34.4013C884.04 34.572 884.472 34.7586 884.866 34.9613C885.272 35.164 885.618 35.3986 885.906 35.6653C886.205 35.9213 886.434 36.2253 886.594 36.5773C886.765 36.9293 886.85 37.34 886.85 37.8093C886.85 38.1293 886.802 38.4493 886.706 38.7693C886.61 39.0786 886.45 39.3666 886.226 39.6333C886.002 39.9 885.709 40.1293 885.346 40.3213C884.994 40.5133 884.557 40.652 884.034 40.7373V42.6893H882.018V40.7853ZM891.724 41.1853C891.436 41.1853 891.132 41.164 890.812 41.1213C890.492 41.0893 890.183 41.0413 889.884 40.9773C889.586 40.9133 889.314 40.844 889.068 40.7693C888.823 40.6946 888.631 40.6253 888.492 40.5613L888.956 38.5773C889.234 38.6946 889.586 38.8226 890.012 38.9613C890.45 39.0893 890.988 39.1533 891.628 39.1533C892.364 39.1533 892.903 39.0146 893.244 38.7373C893.586 38.46 893.756 38.0866 893.756 37.6173C893.756 37.3293 893.692 37.0893 893.564 36.8973C893.447 36.6946 893.282 36.5346 893.068 36.4173C892.855 36.2893 892.599 36.204 892.3 36.1613C892.012 36.108 891.703 36.0813 891.372 36.0813H890.444V34.1613H891.5C891.735 34.1613 891.959 34.14 892.172 34.0973C892.396 34.0546 892.594 33.9853 892.764 33.8893C892.935 33.7826 893.068 33.644 893.164 33.4733C893.271 33.292 893.324 33.068 893.324 32.8013C893.324 32.5986 893.282 32.4226 893.196 32.2733C893.111 32.124 892.999 32.0013 892.86 31.9053C892.732 31.8093 892.578 31.74 892.396 31.6973C892.226 31.644 892.05 31.6173 891.868 31.6173C891.41 31.6173 890.983 31.6866 890.588 31.8253C890.204 31.964 889.852 32.1346 889.532 32.3373L888.684 30.5933C888.855 30.4866 889.052 30.3746 889.276 30.2573C889.511 30.14 889.767 30.0333 890.044 29.9373C890.322 29.8413 890.615 29.7613 890.924 29.6973C891.244 29.6333 891.58 29.6013 891.932 29.6013C892.583 29.6013 893.143 29.6813 893.612 29.8413C894.092 29.9906 894.487 30.2093 894.796 30.4973C895.106 30.7746 895.335 31.1053 895.484 31.4893C895.634 31.8626 895.708 32.2733 895.708 32.7213C895.708 33.1586 895.586 33.5853 895.34 34.0013C895.095 34.4066 894.764 34.716 894.348 34.9293C894.924 35.164 895.367 35.516 895.676 35.9853C895.996 36.444 896.156 36.9986 896.156 37.6493C896.156 38.1613 896.071 38.636 895.9 39.0733C895.73 39.5 895.463 39.8733 895.1 40.1933C894.738 40.5026 894.274 40.748 893.708 40.9293C893.154 41.1 892.492 41.1853 891.724 41.1853ZM903.43 37.6813C903.43 37.372 903.361 37.1 903.222 36.8653C903.083 36.62 902.843 36.4173 902.502 36.2573C902.161 36.0973 901.702 35.9746 901.126 35.8893C900.55 35.804 899.825 35.7613 898.95 35.7613C899.067 34.7693 899.163 33.7613 899.238 32.7373C899.313 31.7133 899.371 30.7533 899.414 29.8573H905.414V31.8573H901.414C901.393 32.2413 901.366 32.6146 901.334 32.9773C901.313 33.3293 901.286 33.6386 901.254 33.9053C902.811 34.012 903.958 34.38 904.694 35.0093C905.441 35.628 905.814 36.492 905.814 37.6013C905.814 38.1133 905.723 38.588 905.542 39.0253C905.361 39.4626 905.089 39.8413 904.726 40.1613C904.363 40.4813 903.905 40.732 903.35 40.9133C902.806 41.0946 902.166 41.1853 901.43 41.1853C901.142 41.1853 900.838 41.164 900.518 41.1213C900.209 41.0893 899.905 41.0413 899.606 40.9773C899.318 40.924 899.057 40.8653 898.822 40.8013C898.587 40.7373 898.406 40.6733 898.278 40.6093L898.71 38.6413C898.977 38.7586 899.329 38.876 899.766 38.9933C900.203 39.1 900.726 39.1533 901.334 39.1533C902.07 39.1533 902.603 39.0093 902.934 38.7213C903.265 38.4226 903.43 38.076 903.43 37.6813ZM915.808 35.3773C915.808 37.244 915.45 38.6786 914.736 39.6813C914.032 40.6733 913.056 41.1693 911.808 41.1693C910.56 41.1693 909.578 40.6733 908.864 39.6813C908.16 38.6786 907.808 37.244 907.808 35.3773C907.808 34.4493 907.898 33.628 908.08 32.9133C908.272 32.1986 908.544 31.596 908.896 31.1053C909.248 30.6146 909.669 30.2413 910.16 29.9853C910.65 29.7293 911.2 29.6013 911.808 29.6013C913.056 29.6013 914.032 30.1026 914.736 31.1053C915.45 32.0973 915.808 33.5213 915.808 35.3773ZM913.376 35.3773C913.376 34.8226 913.349 34.3213 913.296 33.8733C913.242 33.4146 913.157 33.02 913.04 32.6893C912.922 32.3586 912.762 32.1026 912.56 31.9213C912.357 31.74 912.106 31.6493 911.808 31.6493C911.509 31.6493 911.258 31.74 911.056 31.9213C910.864 32.1026 910.704 32.3586 910.576 32.6893C910.458 33.02 910.373 33.4146 910.32 33.8733C910.266 34.3213 910.24 34.8226 910.24 35.3773C910.24 35.932 910.266 36.4386 910.32 36.8973C910.373 37.356 910.458 37.7506 910.576 38.0813C910.704 38.412 910.864 38.668 911.056 38.8493C911.258 39.0306 911.509 39.1213 911.808 39.1213C912.106 39.1213 912.357 39.0306 912.56 38.8493C912.762 38.668 912.922 38.412 913.04 38.0813C913.157 37.7506 913.242 37.356 913.296 36.8973C913.349 36.4386 913.376 35.932 913.376 35.3773ZM917.257 35.0893H921.897V37.2493H917.257V35.0893ZM927.899 32.7693C927.483 33.3133 927.04 33.9053 926.571 34.5453C926.102 35.1853 925.707 35.8413 925.387 36.5133H927.899V32.7693ZM930.235 29.8573V36.5133H931.419V38.4653H930.235V40.9453H927.899V38.4653H923.115V36.7213C923.35 36.252 923.643 35.724 923.995 35.1373C924.347 34.54 924.736 33.932 925.163 33.3133C925.6 32.684 926.059 32.0706 926.539 31.4733C927.019 30.876 927.499 30.3373 927.979 29.8573H930.235ZM940.933 35.3773C940.933 37.244 940.575 38.6786 939.861 39.6813C939.157 40.6733 938.181 41.1693 936.933 41.1693C935.685 41.1693 934.703 40.6733 933.989 39.6813C933.285 38.6786 932.933 37.244 932.933 35.3773C932.933 34.4493 933.023 33.628 933.205 32.9133C933.397 32.1986 933.669 31.596 934.021 31.1053C934.373 30.6146 934.794 30.2413 935.285 29.9853C935.775 29.7293 936.325 29.6013 936.933 29.6013C938.181 29.6013 939.157 30.1026 939.861 31.1053C940.575 32.0973 940.933 33.5213 940.933 35.3773ZM938.501 35.3773C938.501 34.8226 938.474 34.3213 938.421 33.8733C938.367 33.4146 938.282 33.02 938.165 32.6893C938.047 32.3586 937.887 32.1026 937.685 31.9213C937.482 31.74 937.231 31.6493 936.933 31.6493C936.634 31.6493 936.383 31.74 936.181 31.9213C935.989 32.1026 935.829 32.3586 935.701 32.6893C935.583 33.02 935.498 33.4146 935.445 33.8733C935.391 34.3213 935.365 34.8226 935.365 35.3773C935.365 35.932 935.391 36.4386 935.445 36.8973C935.498 37.356 935.583 37.7506 935.701 38.0813C935.829 38.412 935.989 38.668 936.181 38.8493C936.383 39.0306 936.634 39.1213 936.933 39.1213C937.231 39.1213 937.482 39.0306 937.685 38.8493C937.887 38.668 938.047 38.412 938.165 38.0813C938.282 37.7506 938.367 37.356 938.421 36.8973C938.474 36.4386 938.501 35.932 938.501 35.3773ZM950.526 35.3773C950.526 37.244 950.169 38.6786 949.454 39.6813C948.75 40.6733 947.774 41.1693 946.526 41.1693C945.278 41.1693 944.297 40.6733 943.582 39.6813C942.878 38.6786 942.526 37.244 942.526 35.3773C942.526 34.4493 942.617 33.628 942.798 32.9133C942.99 32.1986 943.262 31.596 943.614 31.1053C943.966 30.6146 944.388 30.2413 944.878 29.9853C945.369 29.7293 945.918 29.6013 946.526 29.6013C947.774 29.6013 948.75 30.1026 949.454 31.1053C950.169 32.0973 950.526 33.5213 950.526 35.3773ZM948.094 35.3773C948.094 34.8226 948.068 34.3213 948.014 33.8733C947.961 33.4146 947.876 33.02 947.758 32.6893C947.641 32.3586 947.481 32.1026 947.278 31.9213C947.076 31.74 946.825 31.6493 946.526 31.6493C946.228 31.6493 945.977 31.74 945.774 31.9213C945.582 32.1026 945.422 32.3586 945.294 32.6893C945.177 33.02 945.092 33.4146 945.038 33.8733C944.985 34.3213 944.958 34.8226 944.958 35.3773C944.958 35.932 944.985 36.4386 945.038 36.8973C945.092 37.356 945.177 37.7506 945.294 38.0813C945.422 38.412 945.582 38.668 945.774 38.8493C945.977 39.0306 946.228 39.1213 946.526 39.1213C946.825 39.1213 947.076 39.0306 947.278 38.8493C947.481 38.668 947.641 38.412 947.758 38.0813C947.876 37.7506 947.961 37.356 948.014 36.8973C948.068 36.4386 948.094 35.932 948.094 35.3773Z" fill="#001302"/>
<path d="M895.996 13.6293C896.631 13.6293 897.093 13.522 897.382 13.3073C897.672 13.0926 897.816 12.7893 897.816 12.3973C897.816 12.164 897.765 11.9633 897.662 11.7953C897.569 11.6273 897.429 11.478 897.242 11.3473C897.065 11.2073 896.846 11.0813 896.584 10.9693C896.323 10.848 896.024 10.7313 895.688 10.6193C895.352 10.498 895.026 10.3673 894.708 10.2273C894.4 10.078 894.125 9.89598 893.882 9.68131C893.649 9.46665 893.458 9.20998 893.308 8.91131C893.168 8.61265 893.098 8.25331 893.098 7.83331C893.098 6.95598 893.402 6.26998 894.008 5.77531C894.615 5.27131 895.441 5.01931 896.486 5.01931C897.093 5.01931 897.63 5.08931 898.096 5.22931C898.572 5.35998 898.946 5.50465 899.216 5.66331L898.67 7.09131C898.353 6.91398 898.003 6.77865 897.62 6.68531C897.247 6.59198 896.86 6.54531 896.458 6.54531C895.982 6.54531 895.609 6.64331 895.338 6.83931C895.077 7.03531 894.946 7.31065 894.946 7.66531C894.946 7.87998 894.988 8.06665 895.072 8.22531C895.166 8.37465 895.292 8.50998 895.45 8.63131C895.618 8.75265 895.81 8.86465 896.024 8.96731C896.248 9.06998 896.491 9.16798 896.752 9.26131C897.21 9.42931 897.616 9.60198 897.97 9.77931C898.334 9.94731 898.638 10.1526 898.88 10.3953C899.132 10.6286 899.324 10.9086 899.454 11.2353C899.585 11.5526 899.65 11.94 899.65 12.3973C899.65 13.2746 899.338 13.956 898.712 14.4413C898.096 14.9173 897.191 15.1553 895.996 15.1553C895.595 15.1553 895.226 15.1273 894.89 15.0713C894.564 15.0246 894.27 14.964 894.008 14.8893C893.756 14.8146 893.537 14.74 893.35 14.6653C893.164 14.5813 893.014 14.5066 892.902 14.4413L893.42 12.9993C893.672 13.1393 894.013 13.2793 894.442 13.4193C894.872 13.5593 895.39 13.6293 895.996 13.6293ZM903.797 13.7553C904.32 13.7553 904.716 13.7273 904.987 13.6713V11.7953C904.894 11.7673 904.758 11.7393 904.581 11.7113C904.404 11.6833 904.208 11.6693 903.993 11.6693C903.806 11.6693 903.615 11.6833 903.419 11.7113C903.232 11.7393 903.06 11.7906 902.901 11.8653C902.752 11.94 902.63 12.0473 902.537 12.1873C902.444 12.318 902.397 12.486 902.397 12.6913C902.397 13.0926 902.523 13.3726 902.775 13.5313C903.027 13.6806 903.368 13.7553 903.797 13.7553ZM903.657 7.44131C904.217 7.44131 904.688 7.51131 905.071 7.65131C905.454 7.79131 905.757 7.98731 905.981 8.23931C906.214 8.49131 906.378 8.79931 906.471 9.16331C906.574 9.51798 906.625 9.90998 906.625 10.3393V14.7773C906.364 14.8333 905.967 14.8986 905.435 14.9733C904.912 15.0573 904.32 15.0993 903.657 15.0993C903.218 15.0993 902.817 15.0573 902.453 14.9733C902.089 14.8893 901.776 14.754 901.515 14.5673C901.263 14.3806 901.062 14.138 900.913 13.8393C900.773 13.5406 900.703 13.172 900.703 12.7333C900.703 12.3133 900.782 11.9586 900.941 11.6693C901.109 11.38 901.333 11.1466 901.613 10.9693C901.893 10.7826 902.215 10.652 902.579 10.5773C902.952 10.4933 903.34 10.4513 903.741 10.4513C903.928 10.4513 904.124 10.4653 904.329 10.4933C904.534 10.512 904.754 10.5493 904.987 10.6053V10.3253C904.987 10.1293 904.964 9.94265 904.917 9.76531C904.87 9.58798 904.786 9.43398 904.665 9.30331C904.553 9.16331 904.399 9.05598 904.203 8.98131C904.016 8.90665 903.778 8.86931 903.489 8.86931C903.097 8.86931 902.738 8.89731 902.411 8.95331C902.084 9.00931 901.818 9.07465 901.613 9.14931L901.403 7.77731C901.618 7.70265 901.93 7.62798 902.341 7.55331C902.752 7.47865 903.19 7.44131 903.657 7.44131ZM911.347 15.0853C910.843 15.076 910.423 15.02 910.087 14.9173C909.761 14.8146 909.499 14.67 909.303 14.4833C909.107 14.2873 908.967 14.0493 908.883 13.7693C908.809 13.48 908.771 13.1533 908.771 12.7893V4.36131L910.465 4.08131V12.4673C910.465 12.6726 910.479 12.8453 910.507 12.9853C910.545 13.1253 910.605 13.2466 910.689 13.3493C910.773 13.4426 910.885 13.5173 911.025 13.5733C911.175 13.62 911.361 13.6573 911.585 13.6853L911.347 15.0853ZM915.632 13.7553C916.154 13.7553 916.551 13.7273 916.822 13.6713V11.7953C916.728 11.7673 916.593 11.7393 916.416 11.7113C916.238 11.6833 916.042 11.6693 915.828 11.6693C915.641 11.6693 915.45 11.6833 915.254 11.7113C915.067 11.7393 914.894 11.7906 914.736 11.8653C914.586 11.94 914.465 12.0473 914.372 12.1873C914.278 12.318 914.232 12.486 914.232 12.6913C914.232 13.0926 914.358 13.3726 914.61 13.5313C914.862 13.6806 915.202 13.7553 915.632 13.7553ZM915.492 7.44131C916.052 7.44131 916.523 7.51131 916.906 7.65131C917.288 7.79131 917.592 7.98731 917.816 8.23931C918.049 8.49131 918.212 8.79931 918.306 9.16331C918.408 9.51798 918.46 9.90998 918.46 10.3393V14.7773C918.198 14.8333 917.802 14.8986 917.27 14.9733C916.747 15.0573 916.154 15.0993 915.492 15.0993C915.053 15.0993 914.652 15.0573 914.288 14.9733C913.924 14.8893 913.611 14.754 913.35 14.5673C913.098 14.3806 912.897 14.138 912.748 13.8393C912.608 13.5406 912.538 13.172 912.538 12.7333C912.538 12.3133 912.617 11.9586 912.776 11.6693C912.944 11.38 913.168 11.1466 913.448 10.9693C913.728 10.7826 914.05 10.652 914.414 10.5773C914.787 10.4933 915.174 10.4513 915.576 10.4513C915.762 10.4513 915.958 10.4653 916.164 10.4933C916.369 10.512 916.588 10.5493 916.822 10.6053V10.3253C916.822 10.1293 916.798 9.94265 916.752 9.76531C916.705 9.58798 916.621 9.43398 916.5 9.30331C916.388 9.16331 916.234 9.05598 916.038 8.98131C915.851 8.90665 915.613 8.86931 915.324 8.86931C914.932 8.86931 914.572 8.89731 914.246 8.95331C913.919 9.00931 913.653 9.07465 913.448 9.14931L913.238 7.77731C913.452 7.70265 913.765 7.62798 914.176 7.55331C914.586 7.47865 915.025 7.44131 915.492 7.44131ZM924.806 9.14931C924.666 9.10265 924.47 9.05598 924.218 9.00931C923.976 8.95331 923.691 8.92531 923.364 8.92531C923.178 8.92531 922.977 8.94398 922.762 8.98131C922.557 9.01865 922.412 9.05131 922.328 9.07931V14.9453H920.634V7.97331C920.961 7.85198 921.367 7.73998 921.852 7.63731C922.347 7.52531 922.893 7.46931 923.49 7.46931C923.602 7.46931 923.733 7.47865 923.882 7.49731C924.032 7.50665 924.181 7.52531 924.33 7.55331C924.48 7.57198 924.624 7.59998 924.764 7.63731C924.904 7.66531 925.016 7.69331 925.1 7.72131L924.806 9.14931ZM932.605 7.62331C931.849 10.4046 930.971 12.9246 929.973 15.1833C929.786 15.6033 929.595 15.9626 929.399 16.2613C929.203 16.56 928.983 16.8073 928.741 17.0033C928.498 17.1993 928.227 17.3393 927.929 17.4233C927.63 17.5166 927.285 17.5633 926.893 17.5633C926.631 17.5633 926.37 17.5353 926.109 17.4793C925.857 17.4233 925.665 17.3626 925.535 17.2973L925.843 15.9393C926.179 16.07 926.51 16.1353 926.837 16.1353C927.275 16.1353 927.616 16.028 927.859 15.8133C928.111 15.608 928.33 15.286 928.517 14.8473C927.985 13.8206 927.471 12.7006 926.977 11.4873C926.491 10.274 926.057 8.98598 925.675 7.62331H927.481C927.574 8.01531 927.686 8.43998 927.817 8.89731C927.957 9.35465 928.106 9.82131 928.265 10.2973C928.423 10.764 928.591 11.2306 928.769 11.6973C928.946 12.164 929.123 12.598 929.301 12.9993C929.599 12.1686 929.879 11.2866 930.141 10.3533C930.402 9.41065 930.64 8.50065 930.855 7.62331H932.605Z" fill="#94A3B8"/>
</svg>
