<svg width="53" height="53" viewBox="0 0 53 53" fill="none" xmlns="http://www.w3.org/2000/svg">
<path fill-rule="evenodd" clip-rule="evenodd" d="M20.9485 51.5853C23.0829 52.1693 25.2855 52.4669 27.4984 52.4702L27.8509 52.4677C29.1142 52.452 30.353 52.1172 31.4522 51.4943C32.5515 50.8715 33.4754 49.9809 34.1382 48.9053C35.4932 46.7154 35.6382 44.0229 34.5207 41.7055L34.0257 40.668C32.8932 38.3131 33.7832 36.1781 34.9957 34.9657C36.2082 33.7532 38.3481 32.8632 40.6955 33.9957H40.6981L41.7305 34.4932C42.8658 35.0421 44.1216 35.295 45.3809 35.2281C46.6402 35.1612 47.8621 34.7768 48.9329 34.1107C50.0091 33.4484 50.9003 32.5246 51.5236 31.4253C52.1469 30.326 52.482 29.0869 52.4978 27.8233C52.529 25.4934 52.232 23.1706 51.6153 20.9235C49.0204 11.3562 40.7331 4.03891 31.0008 2.71144C23.1285 1.64397 15.3987 4.21641 9.8238 9.79377C4.24893 15.3711 1.66399 23.0884 2.73897 30.9708C4.06394 40.7055 11.3838 48.9903 20.9485 51.5853ZM38.8997 13.5695C38.1965 12.8663 37.2427 12.4712 36.2482 12.4712C35.2536 12.4712 34.2998 12.8663 33.5966 13.5695C32.8933 14.2728 32.4983 15.2266 32.4983 16.2211C32.4983 17.2157 32.8933 18.1695 33.5966 18.8727C34.2998 19.5759 35.2536 19.971 36.2482 19.971C37.2427 19.971 38.1965 19.5759 38.8997 18.8727C39.603 18.1695 39.9981 17.2157 39.9981 16.2211C39.9981 15.2266 39.603 14.2728 38.8997 13.5695ZM26.4 11.0696C25.6968 10.3663 24.743 9.97127 23.7485 9.97127C22.7539 9.97127 21.8001 10.3663 21.0969 11.0696C20.3936 11.7728 19.9986 12.7266 19.9986 13.7212C19.9986 14.7157 20.3936 15.6695 21.0969 16.3728C21.8001 17.076 22.7539 17.4711 23.7485 17.4711C24.743 17.4711 25.6968 17.076 26.4 16.3728C27.1033 15.6695 27.4984 14.7157 27.4984 13.7212C27.4984 12.7266 27.1033 11.7728 26.4 11.0696ZM18.9002 38.8872C19.6035 38.184 19.9986 37.2302 19.9986 36.2356C19.9986 35.2411 19.6035 34.2873 18.9002 33.5841C18.197 32.8808 17.2432 32.4857 16.2486 32.4857C15.2541 32.4857 14.3003 32.8808 13.5971 33.5841C12.8938 34.2873 12.4987 35.2411 12.4987 36.2356C12.4987 37.2302 12.8938 38.184 13.5971 38.8872C14.3003 39.5905 15.2541 39.9855 16.2486 39.9855C17.2432 39.9855 18.197 39.5905 18.9002 38.8872ZM16.4008 21.0856C15.6976 20.3819 14.7436 19.9864 13.7487 19.986C12.7538 19.9857 11.7996 20.3806 11.0959 21.0838C10.3922 21.7871 9.99663 22.7411 9.99629 23.7359C9.99596 24.7308 10.3909 25.6851 11.0941 26.3888C11.7973 27.0925 12.7513 27.488 13.7462 27.4883C14.7411 27.4887 15.6953 27.0938 16.399 26.3905C17.1028 25.6873 17.4983 24.7333 17.4986 23.7384C17.4989 22.7436 17.1041 21.7893 16.4008 21.0856Z" fill="#001302"/>
</svg>
