<svg width="16" height="19" viewBox="0 0 16 19" fill="none" xmlns="http://www.w3.org/2000/svg">
<path d="M14.4952 7.64603C14.4952 11.1383 8.17142 17.1317 8.17142 17.1317C8.17142 17.1317 1.84766 11.1383 1.84766 7.64603C1.84766 5.96886 2.51391 4.36039 3.69984 3.17445C4.88578 1.98852 6.49425 1.32227 8.17142 1.32227C9.84859 1.32227 11.4571 1.98852 12.643 3.17445C13.8289 4.36039 14.4952 5.96886 14.4952 7.64603V7.64603Z" stroke="#001302" stroke-width="1.77856"/>
<path d="M8.17133 8.43641C8.38098 8.43641 8.58204 8.35313 8.73028 8.20489C8.87852 8.05664 8.9618 7.85559 8.9618 7.64594C8.9618 7.43629 8.87852 7.23523 8.73028 7.08699C8.58204 6.93875 8.38098 6.85547 8.17133 6.85547C7.96168 6.85547 7.76063 6.93875 7.61238 7.08699C7.46414 7.23523 7.38086 7.43629 7.38086 7.64594C7.38086 7.85559 7.46414 8.05664 7.61238 8.20489C7.76063 8.35313 7.96168 8.43641 8.17133 8.43641Z" fill="#F8F8F8" stroke="#001302" stroke-width="1.77856" stroke-linecap="round" stroke-linejoin="round"/>
</svg>
