<svg width="43" height="40" viewBox="0 0 43 40" fill="none" xmlns="http://www.w3.org/2000/svg">
<path d="M39.5503 1.07034L13.167 10.4912V25.0745L14.7253 25.6308L12.3774 30.3266C12.11 30.8604 11.9605 31.4456 11.939 32.0422C11.9176 32.6389 12.0247 33.2333 12.2531 33.785C12.4815 34.3366 12.8259 34.8327 13.2629 35.2396C13.6999 35.6465 14.2192 35.9547 14.7857 36.1433L23.2941 38.9787C24.2458 39.289 25.2772 39.2489 26.202 38.8658C27.1269 38.4826 27.8843 37.7816 28.3378 36.8891L31.0524 31.4599L39.5503 34.4953C39.8646 34.6074 40.2011 34.6424 40.5317 34.5974C40.8623 34.5523 41.1772 34.4285 41.45 34.2364C41.7228 34.0443 41.9454 33.7894 42.0992 33.4933C42.2529 33.1973 42.3334 32.8686 42.3336 32.5349V3.03076C42.3334 2.69712 42.2529 2.36843 42.0992 2.07234C41.9454 1.77625 41.7228 1.52142 41.45 1.3293C41.1772 1.13718 40.8623 1.01337 40.5317 0.96831C40.2011 0.923246 39.8646 0.958237 39.5503 1.07034ZM24.6107 35.0266L16.1045 32.1912L18.6774 27.0433L27.0982 30.0516L24.6107 35.0266ZM4.83366 25.0745H9.00032V10.4912H4.83366C2.53574 10.4912 0.666992 12.3599 0.666992 14.6578V20.9078C0.666992 23.2058 2.53574 25.0745 4.83366 25.0745Z" fill="#001302"/>
</svg>
