<svg width="48" height="49" viewBox="0 0 48 49" fill="none" xmlns="http://www.w3.org/2000/svg">
<path d="M18.5059 27.5625C20.0246 27.5625 21.2559 26.3313 21.2559 24.8125C21.2559 23.2937 20.0246 22.0625 18.5059 22.0625C16.9871 22.0625 15.7559 23.2937 15.7559 24.8125C15.7559 26.3313 16.9871 27.5625 18.5059 27.5625Z" stroke="#8C8D8E" stroke-width="1.5" stroke-linecap="round" stroke-linejoin="round"/>
<path d="M29.5059 22.0625C31.0246 22.0625 32.2559 20.8313 32.2559 19.3125C32.2559 17.7937 31.0246 16.5625 29.5059 16.5625C27.9871 16.5625 26.7559 17.7937 26.7559 19.3125C26.7559 20.8313 27.9871 22.0625 29.5059 22.0625Z" stroke="#8C8D8E" stroke-width="1.5" stroke-linecap="round" stroke-linejoin="round"/>
<path d="M29.5059 33.0625C31.0246 33.0625 32.2559 31.8313 32.2559 30.3125C32.2559 28.7937 31.0246 27.5625 29.5059 27.5625C27.9871 27.5625 26.7559 28.7937 26.7559 30.3125C26.7559 31.8313 27.9871 33.0625 29.5059 33.0625Z" stroke="#8C8D8E" stroke-width="1.5" stroke-linecap="round" stroke-linejoin="round"/>
<path d="M20.9805 23.6206L27.0305 20.5039" stroke="#8C8D8E" stroke-width="1.5" stroke-linecap="round" stroke-linejoin="round"/>
<path d="M20.9805 26.0039L27.0305 29.1206" stroke="#8C8D8E" stroke-width="1.5" stroke-linecap="round" stroke-linejoin="round"/>
<circle cx="24.0059" cy="24.8125" r="23.5" stroke="#E2E8F0"/>
</svg>
