<svg width="51" height="51" viewBox="0 0 51 51" fill="none" xmlns="http://www.w3.org/2000/svg">
<g clip-path="url(#clip0_64_472)">
<path d="M13.3299 19.2246H42.1667V14.5371C42.1667 11.9492 40.3003 9.84961 38 9.84961H24.1111L18.5556 3.59961H4.66667C2.36545 3.59961 0.5 5.69824 0.5 8.28711V40.3574L8.35937 22.6719C9.30208 20.5527 11.2118 19.2246 13.3299 19.2246ZM47.6441 22.3496H13.3299C12.2795 22.3496 11.316 23.0137 10.8472 24.0781L0.5 47.3496H39.3108C40.3628 47.3496 41.3246 46.6805 41.7951 45.6221L50.1285 26.8721C51.125 24.791 49.7795 22.3496 47.6441 22.3496Z" fill="#001302"/>
</g>
<defs>
<clipPath id="clip0_64_472">
<rect width="50" height="50" fill="white" transform="translate(0.5 0.474609)"/>
</clipPath>
</defs>
</svg>
