<svg width="42" height="51" viewBox="0 0 42 51" fill="none" xmlns="http://www.w3.org/2000/svg">
<path fill-rule="evenodd" clip-rule="evenodd" d="M19.0367 29.3806C19.6178 29.7689 20.3009 29.9762 20.9998 29.9762C21.937 29.9762 22.8358 29.6039 23.4984 28.9412C24.1611 28.2785 24.5334 27.3798 24.5334 26.4426C24.5334 25.7437 24.3262 25.0605 23.9379 24.4795C23.5496 23.8984 22.9977 23.4454 22.3521 23.178C21.7064 22.9106 20.9959 22.8406 20.3105 22.9769C19.625 23.1133 18.9954 23.4498 18.5012 23.944C18.007 24.4382 17.6705 25.0678 17.5341 25.7532C17.3978 26.4387 17.4678 27.1492 17.7352 27.7948C18.0027 28.4405 18.4556 28.9924 19.0367 29.3806Z" fill="#F8F8F8"/>
<path fill-rule="evenodd" clip-rule="evenodd" d="M40.6774 28.3198L24.3567 50.4709C24.2455 50.6192 24.0904 50.7288 23.9134 50.784C23.7364 50.8393 23.5465 50.8375 23.3706 50.7789C23.1948 50.7203 23.0418 50.6078 22.9334 50.4574C22.8249 50.3069 22.7666 50.1262 22.7666 49.9408V33.2889C24.4321 32.8589 25.8835 31.8362 26.8489 30.4125C27.8143 28.9889 28.2274 27.2621 28.0106 25.5557C27.7939 23.8493 26.9623 22.2805 25.6716 21.1434C24.381 20.0064 22.7199 19.379 20.9998 19.379C19.2797 19.379 17.6187 20.0064 16.328 21.1434C15.0374 22.2805 14.2058 23.8493 13.989 25.5557C13.7723 27.2621 14.1853 28.9889 15.1507 30.4125C16.1161 31.8362 17.5676 32.8589 19.233 33.2889V49.9408C19.233 50.1262 19.1747 50.3069 19.0663 50.4574C18.9579 50.6078 18.8049 50.7203 18.629 50.7789C18.4531 50.8375 18.2632 50.8393 18.0862 50.784C17.9093 50.7288 17.7542 50.6192 17.6429 50.4709L1.32226 28.3198C0.937793 27.7971 0.703683 27.1792 0.645289 26.533C0.586895 25.8867 0.706445 25.2369 0.990987 24.6537L6.86554 12.7721V4.35779C6.86554 3.42063 7.23783 2.52185 7.9005 1.85918C8.56318 1.1965 9.46195 0.824219 10.3991 0.824219H31.6005C32.5377 0.824219 33.4365 1.1965 34.0991 1.85918C34.7618 2.52185 35.1341 3.42063 35.1341 4.35779V12.7721L41.0087 24.6537C41.2932 25.2369 41.4127 25.8867 41.3544 26.533C41.296 27.1792 41.0619 27.7971 40.6774 28.3198ZM10.3991 4.35779H31.6005V11.4249H10.3991V4.35779Z" fill="#F8F8F8"/>
</svg>
