<svg width="18" height="21" viewBox="0 0 18 21" fill="none" xmlns="http://www.w3.org/2000/svg">
<path d="M17.7946 14.9944C17.2743 14.0981 16.5009 11.5622 16.5009 8.25C16.5009 6.26088 15.7107 4.35322 14.3042 2.9467C12.8976 1.54018 10.99 0.75 9.00087 0.75C7.01174 0.75 5.10409 1.54018 3.69757 2.9467C2.29104 4.35322 1.50087 6.26088 1.50087 8.25C1.50087 11.5631 0.726492 14.0981 0.206179 14.9944C0.0733076 15.2222 0.00286746 15.4811 0.00196197 15.7449C0.00105647 16.0086 0.0697178 16.268 0.201022 16.4967C0.332325 16.7255 0.521629 16.9156 0.74984 17.0478C0.978052 17.1801 1.2371 17.2498 1.50087 17.25H5.3268C5.49984 18.0967 5.96001 18.8577 6.62949 19.4042C7.29897 19.9507 8.13666 20.2492 9.00087 20.2492C9.86508 20.2492 10.7028 19.9507 11.3722 19.4042C12.0417 18.8577 12.5019 18.0967 12.6749 17.25H16.5009C16.7646 17.2496 17.0235 17.1798 17.2516 17.0475C17.4796 16.9151 17.6688 16.725 17.8 16.4963C17.9312 16.2676 17.9998 16.0083 17.9988 15.7446C17.9979 15.4809 17.9274 15.2222 17.7946 14.9944ZM9.00087 18.75C8.5357 18.7499 8.08201 18.6055 7.70224 18.3369C7.32247 18.0683 7.0353 17.6886 6.88024 17.25H11.1215C10.9664 17.6886 10.6793 18.0683 10.2995 18.3369C9.91973 18.6055 9.46604 18.7499 9.00087 18.75ZM1.50087 15.75C2.22274 14.5087 3.00087 11.6325 3.00087 8.25C3.00087 6.6587 3.63301 5.13258 4.75823 4.00736C5.88344 2.88214 7.40957 2.25 9.00087 2.25C10.5922 2.25 12.1183 2.88214 13.2435 4.00736C14.3687 5.13258 15.0009 6.6587 15.0009 8.25C15.0009 11.6297 15.7771 14.5059 16.5009 15.75H1.50087Z" fill="#181823"/>
</svg>
