<svg width="16" height="17" viewBox="0 0 16 17" fill="none" xmlns="http://www.w3.org/2000/svg">
<path d="M11.5439 11.6874L15.0022 15.1457L11.5439 11.6874ZM1.16895 7.24103C1.16895 8.01958 1.32229 8.7905 1.62023 9.50978C1.91816 10.2291 2.35486 10.8826 2.90537 11.4331C3.45589 11.9836 4.10944 12.4203 4.82873 12.7183C5.54801 13.0162 6.31893 13.1696 7.09748 13.1696C7.87602 13.1696 8.64694 13.0162 9.36623 12.7183C10.0855 12.4203 10.7391 11.9836 11.2896 11.4331C11.8401 10.8826 12.2768 10.2291 12.5747 9.50978C12.8727 8.7905 13.026 8.01958 13.026 7.24103C13.026 5.66869 12.4014 4.16074 11.2896 3.04893C10.1778 1.93711 8.66982 1.3125 7.09748 1.3125C5.52513 1.3125 4.01719 1.93711 2.90537 3.04893C1.79356 4.16074 1.16895 5.66869 1.16895 7.24103V7.24103Z" stroke="#001302" stroke-width="1.77856" stroke-linecap="round" stroke-linejoin="round"/>
</svg>
