<svg width="55" height="51" viewBox="0 0 55 51" fill="none" xmlns="http://www.w3.org/2000/svg">
<path fill-rule="evenodd" clip-rule="evenodd" d="M9.79199 0.474609C7.30559 0.474609 4.92102 1.46233 3.16287 3.22048C1.40471 4.97864 0.416992 7.3632 0.416992 9.84961V32.7663C0.416992 35.2527 1.40471 37.6372 3.16287 39.3954C4.92102 41.1536 7.30559 42.1413 9.79199 42.1413H36.8753C39.3617 42.1413 41.7463 41.1536 43.5044 39.3954C45.2626 37.6372 46.2503 35.2527 46.2503 32.7663V9.84961C46.2503 7.3632 45.2626 4.97864 43.5044 3.22048C41.7463 1.46233 39.3617 0.474609 36.8753 0.474609H9.79199ZM17.0837 12.9913V29.6246C17.0831 30.0018 17.185 30.3721 17.3784 30.6959C17.5718 31.0198 17.8495 31.285 18.1818 31.4634C18.5142 31.6417 18.8887 31.7265 19.2655 31.7087C19.6423 31.6909 20.0071 31.5711 20.3212 31.3621L32.8128 23.0454C33.099 22.8553 33.3338 22.5974 33.4962 22.2946C33.6585 21.9919 33.7435 21.6536 33.7435 21.31C33.7435 20.9664 33.6585 20.6282 33.4962 20.3254C33.3338 20.0226 33.099 19.7647 32.8128 19.5746L20.3253 11.2579C20.0115 11.048 19.6466 10.9274 19.2696 10.9088C18.8926 10.8902 18.5175 10.9744 18.1846 11.1524C17.8517 11.3304 17.5735 11.5955 17.3795 11.9194C17.1856 12.2433 17.0833 12.6138 17.0837 12.9913Z" fill="#001302"/>
<path d="M17.0837 50.4746C15.4663 50.4759 13.8709 50.1 12.4243 49.3767C10.9777 48.6533 9.71971 47.6026 8.75033 46.3079H38.9587C41.9976 46.3079 44.9121 45.1007 47.0609 42.9519C49.2098 40.803 50.417 37.8885 50.417 34.8496V8.80794C52.9462 10.7079 54.5837 13.7329 54.5837 17.1413V34.8496C54.5837 38.9936 52.9375 42.9679 50.0072 45.8982C47.0769 48.8284 43.1027 50.4746 38.9587 50.4746H17.0837Z" fill="#001302"/>
</svg>
