<svg width="70" height="61" viewBox="0 0 70 61" fill="none" xmlns="http://www.w3.org/2000/svg">
<path d="M33.5 54.4851H9.49999C8.30652 54.4851 7.16193 54.0062 6.31802 53.1537C5.47411 52.3013 5 51.1451 5 49.9396V10.5455C5 9.33994 5.47411 8.18378 6.31802 7.33134C7.16193 6.4789 8.30652 6 9.49999 6H60.4999C61.6934 6 62.838 6.4789 63.6819 7.33134C64.5258 8.18378 64.9999 9.33994 64.9999 10.5455V33.0941" stroke="#001302" stroke-width="2.47022" stroke-linecap="round" stroke-linejoin="round"/>
<path d="M6.31802 7.33134C5.47411 8.18378 5 9.33994 5 10.5455V24.1819H64.9999V10.5455C64.9999 9.33994 64.5258 8.18378 63.6819 7.33134C62.838 6.4789 61.6934 6 60.4999 6H9.49999C8.30652 6 7.16193 6.4789 6.31802 7.33134Z" fill="#001302" stroke="#001302" stroke-width="2.47022"/>
<path d="M50 43.8789L44 49.9395L50 56.0002V43.8789Z" fill="#001302"/>
<path d="M59 43.8789L65 49.9395L59 56.0002M50 43.8789L44 49.9395L50 56.0002V43.8789Z" stroke="#001302" stroke-width="2.47022" stroke-linecap="round" stroke-linejoin="round"/>
</svg>
